<?xml version="1.0" encoding="UTF-8"?>
<svg xmlns="http://www.w3.org/2000/svg" xmlns:xlink="http://www.w3.org/1999/xlink" width="150pt" height="149.999998pt" viewBox="0 0 150 149.999998" version="1.2">
<defs>
<clipPath id="clip1">
  <path d="M 31 28 L 120 28 L 120 141.375 L 31 141.375 Z M 31 28 "/>
</clipPath>
</defs>
<g id="surface1">
<path style=" stroke:none;fill-rule:nonzero;fill:rgb(55.688477%,51.759338%,43.919373%);fill-opacity:1;" d="M 51.785156 36.59375 C 51.785156 36.59375 39.933594 20.402344 55.675781 10.871094 C 55.675781 10.871094 60.242188 8.628906 59.945312 13.675781 C 59.945312 13.675781 51.757812 24.101562 65.65625 29.261719 L 51.785156 36.59375 "/>
<path style=" stroke:none;fill-rule:nonzero;fill:rgb(55.688477%,51.759338%,43.919373%);fill-opacity:1;" d="M 99.425781 36.59375 C 99.425781 36.59375 111.277344 20.402344 95.53125 10.871094 C 95.53125 10.871094 90.96875 8.628906 91.265625 13.675781 C 91.265625 13.675781 99.449219 24.101562 85.550781 29.261719 L 99.425781 36.59375 "/>
<path style=" stroke:none;fill-rule:nonzero;fill:rgb(100%,100%,100%);fill-opacity:1;" d="M 102.976562 30.0625 C 96.140625 37.289062 93.710938 45.742188 97.542969 48.945312 C 101.382812 52.144531 110.027344 48.882812 116.863281 41.660156 C 123.695312 34.433594 126.125 25.980469 122.289062 22.777344 C 118.453125 19.578125 109.804688 22.839844 102.976562 30.0625 "/>
<path style=" stroke:none;fill-rule:nonzero;fill:rgb(82.749939%,82.348633%,82.348633%);fill-opacity:1;" d="M 102.976562 30.0625 L 102.710938 29.8125 C 100.367188 32.289062 98.535156 34.910156 97.285156 37.425781 C 96.035156 39.945312 95.363281 42.363281 95.359375 44.445312 C 95.359375 45.433594 95.511719 46.34375 95.832031 47.15625 C 96.15625 47.964844 96.648438 48.667969 97.3125 49.222656 C 98.390625 50.125 99.8125 50.539062 101.410156 50.539062 C 103.679688 50.539062 106.324219 49.71875 109.050781 48.242188 C 111.777344 46.757812 114.578125 44.605469 117.128906 41.910156 C 119.46875 39.433594 121.300781 36.8125 122.550781 34.296875 C 123.800781 31.777344 124.472656 29.359375 124.472656 27.277344 C 124.472656 26.292969 124.320312 25.378906 124 24.566406 C 123.679688 23.757812 123.1875 23.050781 122.523438 22.496094 C 121.441406 21.59375 120.019531 21.179688 118.421875 21.183594 C 116.15625 21.183594 113.507812 22 110.785156 23.480469 C 108.058594 24.964844 105.257812 27.113281 102.710938 29.8125 L 102.976562 30.0625 L 103.238281 30.3125 C 105.738281 27.667969 108.484375 25.5625 111.132812 24.125 C 113.78125 22.683594 116.332031 21.910156 118.421875 21.914062 C 119.902344 21.914062 121.136719 22.292969 122.054688 23.058594 C 122.625 23.535156 123.039062 24.128906 123.320312 24.835938 C 123.601562 25.542969 123.742188 26.367188 123.742188 27.277344 C 123.746094 29.203125 123.109375 31.527344 121.898438 33.96875 C 120.683594 36.414062 118.894531 38.980469 116.597656 41.40625 C 114.097656 44.050781 111.351562 46.15625 108.703125 47.597656 C 106.054688 49.039062 103.5 49.8125 101.410156 49.808594 C 99.933594 49.808594 98.699219 49.429688 97.78125 48.664062 C 97.210938 48.191406 96.792969 47.59375 96.511719 46.886719 C 96.234375 46.175781 96.09375 45.355469 96.09375 44.445312 C 96.089844 42.519531 96.722656 40.195312 97.9375 37.75 C 99.152344 35.308594 100.945312 32.742188 103.238281 30.3125 L 102.976562 30.0625 "/>
<path style=" stroke:none;fill-rule:nonzero;fill:rgb(86.268616%,59.609985%,65.098572%);fill-opacity:1;" d="M 108.15625 45.8125 C 108.117188 45.722656 108.089844 45.664062 108.078125 45.636719 C 106.621094 41.730469 104.277344 38.722656 101.507812 36.425781 C 101.5 36.417969 101.492188 36.410156 101.484375 36.402344 C 101.550781 36.328125 101.621094 36.253906 101.691406 36.183594 C 105.28125 32.386719 109.496094 30.085938 112.390625 30.085938 C 113.3125 30.085938 114.101562 30.320312 114.691406 30.816406 C 117.136719 32.855469 115.28125 38.570312 110.546875 43.574219 C 109.773438 44.394531 108.96875 45.144531 108.15625 45.8125 "/>
<path style=" stroke:none;fill-rule:nonzero;fill:rgb(100%,100%,100%);fill-opacity:1;" d="M 46.949219 30.0625 C 53.785156 37.289062 56.214844 45.742188 52.378906 48.945312 C 48.542969 52.144531 39.894531 48.882812 33.0625 41.660156 C 26.226562 34.433594 23.800781 25.980469 27.632812 22.777344 C 31.46875 19.578125 40.117188 22.839844 46.949219 30.0625 "/>
<path style=" stroke:none;fill-rule:nonzero;fill:rgb(82.749939%,82.348633%,82.348633%);fill-opacity:1;" d="M 46.949219 30.0625 L 46.683594 30.3125 C 48.980469 32.742188 50.769531 35.308594 51.984375 37.75 C 53.199219 40.195312 53.832031 42.519531 53.832031 44.445312 C 53.832031 45.355469 53.691406 46.175781 53.410156 46.886719 C 53.128906 47.59375 52.710938 48.191406 52.144531 48.664062 C 51.222656 49.429688 49.988281 49.808594 48.511719 49.808594 C 46.421875 49.8125 43.867188 49.039062 41.222656 47.597656 C 38.570312 46.15625 35.824219 44.050781 33.328125 41.40625 C 31.03125 38.980469 29.238281 36.414062 28.027344 33.972656 C 26.8125 31.527344 26.179688 29.203125 26.179688 27.277344 C 26.179688 26.367188 26.320312 25.542969 26.601562 24.835938 C 26.882812 24.128906 27.300781 23.535156 27.867188 23.058594 C 28.785156 22.292969 30.023438 21.914062 31.5 21.914062 C 33.589844 21.910156 36.140625 22.683594 38.789062 24.125 C 41.4375 25.5625 44.183594 27.667969 46.683594 30.3125 L 47.214844 29.8125 C 44.664062 27.113281 41.863281 24.964844 39.136719 23.480469 C 36.414062 22 33.765625 21.183594 31.5 21.183594 C 29.902344 21.179688 28.480469 21.59375 27.398438 22.496094 C 26.734375 23.050781 26.242188 23.757812 25.921875 24.566406 C 25.601562 25.378906 25.449219 26.292969 25.449219 27.277344 C 25.449219 29.363281 26.125 31.777344 27.371094 34.296875 C 28.621094 36.8125 30.453125 39.433594 32.796875 41.910156 C 35.347656 44.605469 38.148438 46.757812 40.871094 48.242188 C 43.597656 49.71875 46.246094 50.539062 48.511719 50.539062 C 50.109375 50.539062 51.53125 50.125 52.613281 49.222656 C 53.277344 48.667969 53.769531 47.964844 54.089844 47.15625 C 54.410156 46.34375 54.5625 45.433594 54.5625 44.445312 C 54.5625 42.363281 53.886719 39.945312 52.636719 37.425781 C 51.390625 34.910156 49.554688 32.289062 47.214844 29.8125 L 46.949219 30.0625 "/>
<path style=" stroke:none;fill-rule:nonzero;fill:rgb(86.268616%,59.609985%,65.098572%);fill-opacity:1;" d="M 43.566406 47.167969 C 42.152344 46.207031 40.722656 44.996094 39.378906 43.574219 C 34.644531 38.570312 32.785156 32.855469 35.230469 30.816406 C 35.824219 30.320312 36.613281 30.085938 37.535156 30.085938 C 40.429688 30.085938 44.644531 32.386719 48.230469 36.183594 C 48.773438 36.753906 49.277344 37.335938 49.742188 37.921875 C 45.964844 41.761719 44.378906 45.398438 44.28125 45.625 C 44.242188 45.703125 43.988281 46.238281 43.566406 47.167969 "/>
<path style=" stroke:none;fill-rule:nonzero;fill:rgb(100%,100%,100%);fill-opacity:1;" d="M 107.691406 45.796875 C 101.027344 27.890625 75.515625 29.375 75.515625 29.375 C 52.289062 27.648438 44.664062 45.796875 44.664062 45.796875 C 44.664062 45.796875 -0.0117188 137.945312 74.984375 140.964844 C 149.980469 137.945312 107.691406 45.796875 107.691406 45.796875 "/>
<g clip-path="url(#clip1)" clip-rule="nonzero">
<path style=" stroke:none;fill-rule:nonzero;fill:rgb(82.749939%,82.348633%,82.348633%);fill-opacity:1;" d="M 107.691406 45.796875 L 108.082031 45.652344 C 106.628906 41.738281 104.28125 38.726562 101.507812 36.425781 C 97.347656 32.96875 92.230469 31.101562 87.648438 30.089844 C 83.0625 29.078125 79 28.925781 76.933594 28.925781 C 76.019531 28.925781 75.496094 28.957031 75.488281 28.957031 L 75.515625 29.375 L 75.546875 28.957031 C 74.484375 28.878906 73.449219 28.839844 72.449219 28.839844 C 61.917969 28.835938 54.851562 33.03125 50.453125 37.222656 C 46.050781 41.417969 44.292969 45.601562 44.277344 45.636719 L 44.664062 45.796875 L 44.285156 45.617188 C 44.28125 45.628906 40.972656 52.449219 37.664062 62.453125 C 34.351562 72.453125 31.039062 85.632812 31.039062 98.375 C 31.039062 109.070312 33.375 119.480469 40.066406 127.402344 C 43.410156 131.359375 47.839844 134.6875 53.582031 137.105469 C 59.324219 139.527344 66.371094 141.039062 74.96875 141.386719 L 75 141.386719 C 83.851562 141.027344 91.097656 139.433594 96.988281 136.890625 C 105.820312 133.070312 111.59375 127.101562 115.132812 120.015625 C 118.671875 112.933594 119.988281 104.75 119.988281 96.46875 C 119.988281 84.007812 117.007812 71.308594 114.03125 61.714844 C 111.054688 52.121094 108.078125 45.636719 108.070312 45.621094 L 107.691406 45.796875 L 108.082031 45.652344 L 107.691406 45.796875 L 107.308594 45.972656 C 107.308594 45.972656 107.351562 46.074219 107.4375 46.265625 C 108.085938 47.722656 111.015625 54.492188 113.78125 63.789062 C 116.550781 73.085938 119.148438 84.914062 119.148438 96.46875 C 119.148438 107.398438 116.824219 118.0625 110.167969 126.15625 C 106.839844 130.203125 102.429688 133.621094 96.652344 136.117188 C 90.878906 138.613281 83.738281 140.191406 74.96875 140.542969 L 74.984375 140.964844 L 75 140.542969 C 66.484375 140.199219 59.539062 138.703125 53.910156 136.332031 C 45.464844 132.773438 39.984375 127.257812 36.582031 120.644531 C 33.179688 114.03125 31.878906 106.308594 31.878906 98.375 C 31.878906 85.777344 35.167969 72.667969 38.460938 62.71875 C 40.109375 57.742188 41.753906 53.554688 42.988281 50.613281 C 43.605469 49.140625 44.121094 47.984375 44.480469 47.191406 C 44.660156 46.796875 44.800781 46.496094 44.898438 46.289062 C 44.992188 46.085938 45.042969 45.980469 45.042969 45.980469 L 45.046875 45.96875 L 45.054688 45.953125 C 45.148438 45.738281 46.941406 41.652344 51.234375 37.644531 C 55.53125 33.632812 62.304688 29.683594 72.449219 29.679688 C 73.429688 29.679688 74.4375 29.71875 75.484375 29.796875 L 75.539062 29.796875 C 75.539062 29.796875 75.566406 29.792969 75.628906 29.789062 C 75.808594 29.785156 76.261719 29.765625 76.933594 29.765625 C 79.632812 29.765625 85.855469 30.039062 92.074219 32.210938 C 95.1875 33.292969 98.296875 34.847656 100.972656 37.070312 C 103.644531 39.292969 105.894531 42.175781 107.296875 45.945312 L 107.300781 45.960938 L 107.308594 45.972656 L 107.691406 45.796875 "/>
</g>
<path style=" stroke:none;fill-rule:nonzero;fill:rgb(86.268616%,59.609985%,65.098572%);fill-opacity:1;" d="M 74.984375 140.542969 C 66.476562 140.199219 59.535156 138.703125 53.910156 136.332031 C 45.464844 132.773438 39.984375 127.257812 36.582031 120.644531 C 33.179688 114.03125 31.878906 106.308594 31.878906 98.375 C 31.878906 98.351562 31.878906 98.320312 31.878906 98.292969 C 48.980469 90.800781 64.023438 88.246094 76.617188 88.246094 C 101.246094 88.246094 116.453125 98.042969 119.070312 99.867188 C 118.621094 109.589844 116.128906 118.90625 110.167969 126.15625 C 106.839844 130.203125 102.429688 133.621094 96.652344 136.117188 C 90.882812 138.613281 83.746094 140.1875 74.984375 140.542969 M 84.132812 112.597656 C 84.132812 114.546875 86.042969 116.125 88.398438 116.125 C 88.511719 116.125 88.621094 116.121094 88.730469 116.113281 C 88.769531 116.113281 88.804688 116.109375 88.84375 116.105469 C 90.992188 115.921875 92.667969 114.421875 92.667969 112.597656 C 92.667969 110.652344 90.753906 109.074219 88.398438 109.074219 C 86.042969 109.074219 84.132812 110.652344 84.132812 112.597656 M 59.945312 116.125 C 62.304688 116.125 64.214844 114.546875 64.214844 112.597656 C 64.214844 110.652344 62.304688 109.074219 59.945312 109.074219 C 57.585938 109.074219 55.675781 110.652344 55.675781 112.597656 C 55.675781 114.421875 57.351562 115.921875 59.5 116.105469 C 59.53125 116.109375 59.566406 116.109375 59.597656 116.113281 C 59.714844 116.121094 59.828125 116.125 59.945312 116.125 "/>
<path style=" stroke:none;fill-rule:nonzero;fill:rgb(71.369934%,49.01886%,53.329468%);fill-opacity:1;" d="M 74.984375 140.964844 C 40.816406 139.589844 31.488281 119.710938 31.460938 98.476562 C 31.597656 98.417969 31.742188 98.355469 31.878906 98.292969 C 31.878906 98.320312 31.878906 98.351562 31.878906 98.375 C 31.878906 106.308594 33.179688 114.03125 36.582031 120.644531 C 39.984375 127.257812 45.464844 132.773438 53.910156 136.332031 C 59.535156 138.703125 66.476562 140.199219 74.984375 140.542969 C 83.746094 140.1875 90.882812 138.613281 96.652344 136.117188 C 102.429688 133.621094 106.839844 130.203125 110.167969 126.15625 C 116.128906 118.90625 118.621094 109.589844 119.070312 99.867188 C 119.339844 100.058594 119.480469 100.160156 119.480469 100.160156 C 118.4375 120.75 108.25 139.625 74.984375 140.964844 "/>
<path style=" stroke:none;fill-rule:nonzero;fill:rgb(64.309692%,43.919373%,47.44873%);fill-opacity:1;" d="M 59.945312 116.125 C 59.828125 116.125 59.714844 116.121094 59.597656 116.113281 C 59.714844 116.121094 59.828125 116.125 59.945312 116.125 M 59.5 116.105469 C 57.351562 115.921875 55.675781 114.421875 55.675781 112.597656 C 55.675781 110.652344 57.585938 109.074219 59.945312 109.074219 C 62.304688 109.074219 64.214844 110.652344 64.214844 112.597656 C 64.214844 110.652344 62.304688 109.074219 59.945312 109.074219 C 58.769531 109.074219 57.707031 109.46875 56.933594 110.101562 C 59.082031 110.285156 60.757812 111.785156 60.757812 113.605469 C 60.757812 114.585938 60.277344 115.464844 59.5 116.105469 "/>
<path style=" stroke:none;fill-rule:nonzero;fill:rgb(56.469727%,38.42926%,41.569519%);fill-opacity:1;" d="M 59.597656 116.113281 C 59.566406 116.109375 59.53125 116.109375 59.5 116.105469 C 59.53125 116.109375 59.566406 116.109375 59.597656 116.113281 "/>
<path style=" stroke:none;fill-rule:nonzero;fill:rgb(43.528748%,29.019165%,30.979919%);fill-opacity:1;" d="M 59.945312 116.125 C 59.828125 116.125 59.714844 116.121094 59.597656 116.113281 C 59.566406 116.109375 59.53125 116.109375 59.5 116.105469 C 60.277344 115.464844 60.757812 114.585938 60.757812 113.605469 C 60.757812 111.785156 59.082031 110.285156 56.933594 110.101562 C 57.707031 109.46875 58.769531 109.074219 59.945312 109.074219 C 62.304688 109.074219 64.214844 110.652344 64.214844 112.597656 C 64.214844 114.546875 62.304688 116.125 59.945312 116.125 "/>
<path style=" stroke:none;fill-rule:nonzero;fill:rgb(64.309692%,43.919373%,47.44873%);fill-opacity:1;" d="M 88.398438 116.125 C 88.511719 116.125 88.621094 116.121094 88.730469 116.113281 C 88.621094 116.121094 88.511719 116.125 88.398438 116.125 M 88.84375 116.105469 C 88.066406 115.464844 87.585938 114.585938 87.585938 113.605469 C 87.585938 111.785156 89.261719 110.285156 91.40625 110.101562 C 90.636719 109.46875 89.570312 109.074219 88.398438 109.074219 C 86.042969 109.074219 84.132812 110.652344 84.132812 112.597656 C 84.132812 110.652344 86.042969 109.074219 88.398438 109.074219 C 90.753906 109.074219 92.667969 110.652344 92.667969 112.597656 C 92.667969 114.421875 90.992188 115.921875 88.84375 116.105469 "/>
<path style=" stroke:none;fill-rule:nonzero;fill:rgb(56.469727%,38.42926%,41.569519%);fill-opacity:1;" d="M 88.730469 116.113281 C 88.769531 116.113281 88.804688 116.109375 88.84375 116.105469 C 88.804688 116.109375 88.769531 116.113281 88.730469 116.113281 "/>
<path style=" stroke:none;fill-rule:nonzero;fill:rgb(43.528748%,29.019165%,30.979919%);fill-opacity:1;" d="M 88.398438 116.125 C 86.042969 116.125 84.132812 114.546875 84.132812 112.597656 C 84.132812 110.652344 86.042969 109.074219 88.398438 109.074219 C 89.570312 109.074219 90.636719 109.46875 91.40625 110.101562 C 89.261719 110.285156 87.585938 111.785156 87.585938 113.605469 C 87.585938 114.585938 88.066406 115.464844 88.84375 116.105469 C 88.804688 116.109375 88.769531 116.113281 88.730469 116.113281 C 88.621094 116.121094 88.511719 116.125 88.398438 116.125 "/>
<path style=" stroke:none;fill-rule:nonzero;fill:rgb(24.708557%,24.708557%,25.878906%);fill-opacity:1;" d="M 76.941406 76.011719 C 76.941406 83.679688 68.660156 89.894531 58.441406 89.894531 C 48.222656 89.894531 39.9375 83.679688 39.9375 76.011719 C 39.9375 68.347656 48.222656 62.132812 58.441406 62.132812 C 68.660156 62.132812 76.941406 68.347656 76.941406 76.011719 "/>
<path style=" stroke:none;fill-rule:nonzero;fill:rgb(17.248535%,15.689087%,16.079712%);fill-opacity:1;" d="M 63.519531 78.195312 C 63.519531 80.722656 61.476562 82.765625 58.953125 82.765625 C 56.429688 82.765625 54.382812 80.722656 54.382812 78.195312 C 54.382812 75.675781 56.429688 73.628906 58.953125 73.628906 C 61.476562 73.628906 63.519531 75.675781 63.519531 78.195312 "/>
<path style=" stroke:none;fill-rule:nonzero;fill:rgb(100%,100%,100%);fill-opacity:1;" d="M 58.441406 76.269531 C 58.441406 77.332031 57.574219 78.195312 56.511719 78.195312 C 55.445312 78.195312 54.582031 77.332031 54.582031 76.269531 C 54.582031 75.203125 55.445312 74.339844 56.511719 74.339844 C 57.574219 74.339844 58.441406 75.203125 58.441406 76.269531 "/>
<path style=" stroke:none;fill-rule:nonzero;fill:rgb(100%,100%,100%);fill-opacity:1;" d="M 60.632812 75.816406 C 60.632812 76.28125 60.257812 76.660156 59.792969 76.660156 C 59.328125 76.660156 58.953125 76.28125 58.953125 75.816406 C 58.953125 75.355469 59.328125 74.980469 59.792969 74.980469 C 60.257812 74.980469 60.632812 75.355469 60.632812 75.816406 "/>
<path style=" stroke:none;fill-rule:nonzero;fill:rgb(17.248535%,15.689087%,16.079712%);fill-opacity:1;" d="M 96.648438 78.195312 C 96.648438 80.722656 94.601562 82.765625 92.078125 82.765625 C 89.554688 82.765625 87.507812 80.722656 87.507812 78.195312 C 87.507812 75.675781 89.554688 73.628906 92.078125 73.628906 C 94.601562 73.628906 96.648438 75.675781 96.648438 78.195312 "/>
<path style=" stroke:none;fill-rule:nonzero;fill:rgb(100%,100%,100%);fill-opacity:1;" d="M 91.5625 76.269531 C 91.5625 77.332031 90.699219 78.195312 89.632812 78.195312 C 88.570312 78.195312 87.707031 77.332031 87.707031 76.269531 C 87.707031 75.203125 88.570312 74.339844 89.632812 74.339844 C 90.699219 74.339844 91.5625 75.203125 91.5625 76.269531 "/>
<path style=" stroke:none;fill-rule:nonzero;fill:rgb(100%,100%,100%);fill-opacity:1;" d="M 93.757812 75.816406 C 93.757812 76.28125 93.382812 76.660156 92.917969 76.660156 C 92.453125 76.660156 92.078125 76.28125 92.078125 75.816406 C 92.078125 75.355469 92.453125 74.980469 92.917969 74.980469 C 93.382812 74.980469 93.757812 75.355469 93.757812 75.816406 "/>
<path style=" stroke:none;fill-rule:nonzero;fill:rgb(20.779419%,12.159729%,9.01947%);fill-opacity:1;" d="M 74.960938 21.398438 C 73.8125 21.417969 72.699219 21.519531 71.648438 21.6875 C 67.921875 22.300781 64.316406 23.753906 61.246094 25.957031 C 59.640625 27.101562 58.203125 28.457031 56.925781 29.960938 C 55.863281 31.214844 54.847656 33.785156 53.546875 34.691406 C 53.550781 34.6875 57.710938 31.789062 61.808594 34.691406 C 61.808594 34.691406 72.457031 42.890625 53.546875 48.972656 C 53.546875 48.972656 72.515625 49.878906 73.199219 39.960938 C 73.199219 39.960938 73.882812 47.941406 66.769531 50.742188 C 67.953125 50.273438 70.273438 50.5625 71.601562 50.300781 C 75.246094 49.574219 78.871094 48.515625 82.359375 47.238281 C 90.28125 44.34375 95.933594 36.933594 90.832031 28.492188 C 87.703125 23.320312 80.898438 21.292969 74.960938 21.398438 "/>
<path style=" stroke:none;fill-rule:nonzero;fill:rgb(43.139648%,31.369019%,24.708557%);fill-opacity:1;" d="M 75.46875 45.285156 C 79.332031 40.277344 75.46875 33.238281 75.46875 33.238281 C 81.417969 37.09375 79.566406 41.597656 79.566406 41.597656 C 89.019531 40.785156 89.957031 31.082031 89.957031 31.082031 C 93.238281 44.695312 75.46875 45.285156 75.46875 45.285156 "/>
<path style=" stroke:none;fill-rule:nonzero;fill:rgb(43.139648%,31.369019%,24.708557%);fill-opacity:1;" d="M 64.535156 45.285156 C 71.910156 36.988281 59.890625 30.757812 59.890625 30.757812 C 66.949219 32.027344 69.753906 39.355469 69.753906 39.355469 C 72.300781 37.058594 71.585938 31.082031 71.585938 31.082031 C 76.976562 43.617188 64.535156 45.285156 64.535156 45.285156 "/>
</g>
</svg>
