<?xml version="1.0" encoding="UTF-8"?>
<svg xmlns="http://www.w3.org/2000/svg" xmlns:xlink="http://www.w3.org/1999/xlink" width="150pt" height="149.999998pt" viewBox="0 0 150 149.999998" version="1.2">
<defs>
<clipPath id="clip1">
  <path d="M 33 33.773438 L 117 33.773438 L 117 116.273438 L 33 116.273438 Z M 33 33.773438 "/>
</clipPath>
</defs>
<g id="surface1">
<g clip-path="url(#clip1)" clip-rule="nonzero">
<path style=" stroke:none;fill-rule:nonzero;fill:rgb(96.859741%,96.469116%,81.959534%);fill-opacity:1;" d="M 33.808594 75.066406 C 33.808594 97.863281 52.300781 116.34375 75.113281 116.34375 C 97.921875 116.34375 116.414062 97.863281 116.414062 75.066406 C 116.414062 52.265625 97.921875 33.789062 75.113281 33.789062 C 52.300781 33.789062 33.808594 52.265625 33.808594 75.066406 "/>
</g>
<path style=" stroke:none;fill-rule:nonzero;fill:rgb(7.839966%,7.839966%,8.239746%);fill-opacity:1;" d="M 74.355469 100.917969 C 62.878906 98.136719 61.117188 88.164062 61.117188 88.164062 C 66.011719 86.257812 70.597656 85.617188 74.546875 85.617188 C 82.535156 85.617188 87.90625 88.234375 87.90625 88.234375 C 83.722656 99.902344 74.355469 100.917969 74.355469 100.917969 "/>
<path style=" stroke:none;fill-rule:nonzero;fill:rgb(7.839966%,7.839966%,8.239746%);fill-opacity:1;" d="M 74.855469 107.230469 L 74.796875 107.027344 C 74.796875 107.027344 74.800781 106.972656 74.804688 106.871094 C 74.824219 106.992188 74.84375 107.113281 74.855469 107.230469 M 74.804688 106.871094 C 74.453125 104.597656 73.066406 101.9375 73.066406 101.9375 C 73.066406 101.9375 73.980469 101.988281 74.511719 102.703125 C 74.976562 103.324219 74.847656 106.171875 74.804688 106.871094 "/>
<path style=" stroke:none;fill-rule:nonzero;fill:rgb(81.959534%,43.139648%,26.269531%);fill-opacity:1;" d="M 69.269531 34.199219 C 49.226562 37.035156 33.808594 54.25 33.808594 75.066406 C 33.808594 85.519531 37.699219 95.066406 44.113281 102.339844 C 51.628906 91.984375 59.976562 82.628906 64.261719 70.6875 C 68.128906 58.570312 69.117188 46.453125 69.269531 34.199219 "/>
<path style=" stroke:none;fill-rule:nonzero;fill:rgb(81.959534%,43.139648%,26.269531%);fill-opacity:1;" d="M 81.03125 34.210938 C 81.191406 46.460938 82.175781 58.574219 86.039062 70.6875 C 90.320312 82.609375 98.648438 91.953125 106.15625 102.289062 C 112.542969 95.023438 116.414062 85.496094 116.414062 75.066406 C 116.414062 54.277344 101.039062 37.082031 81.03125 34.210938 "/>
<path style=" stroke:none;fill-rule:nonzero;fill:rgb(66.668701%,33.329773%,21.179199%);fill-opacity:1;" d="M 50.785156 41.691406 C 40.484375 36.015625 32.53125 51.910156 26.914062 57.210938 C 18.492188 64.398438 7.726562 71.96875 11.9375 82.941406 C 13.808594 88.996094 29.722656 112.082031 39.082031 109.433594 C 46.574219 107.542969 45.632812 90.511719 45.632812 85.59375 C 45.632812 81.050781 45.167969 76.507812 44.699219 72.347656 C 44.699219 72.347656 42.226562 53.285156 48.003906 46.242188 L 50.785156 41.691406 "/>
<path style=" stroke:none;fill-rule:nonzero;fill:rgb(66.668701%,33.329773%,21.179199%);fill-opacity:1;" d="M 99.4375 41.691406 C 109.734375 36.015625 117.691406 51.910156 123.308594 57.210938 C 131.730469 64.398438 142.5 71.96875 138.285156 82.941406 C 136.414062 88.996094 120.5 112.082031 111.140625 109.433594 C 103.652344 107.542969 104.589844 90.511719 104.589844 85.59375 C 104.589844 81.050781 105.054688 76.507812 105.523438 72.347656 C 105.523438 72.347656 107.996094 53.285156 102.21875 46.242188 L 99.4375 41.691406 "/>
<path style=" stroke:none;fill-rule:nonzero;fill:rgb(13.729858%,12.159729%,12.548828%);fill-opacity:1;" d="M 92.507812 71.316406 C 92.507812 73.894531 94.601562 75.984375 97.179688 75.984375 C 99.761719 75.984375 101.851562 73.894531 101.851562 71.316406 C 101.851562 68.738281 99.761719 66.648438 97.179688 66.648438 C 94.601562 66.648438 92.507812 68.738281 92.507812 71.316406 "/>
<path style=" stroke:none;fill-rule:nonzero;fill:rgb(93.328857%,91.369629%,90.19928%);fill-opacity:1;" d="M 97.382812 69.140625 C 97.382812 69.8125 97.929688 70.355469 98.597656 70.355469 C 99.269531 70.355469 99.8125 69.8125 99.8125 69.140625 C 99.8125 68.46875 99.269531 67.925781 98.597656 67.925781 C 97.929688 67.925781 97.382812 68.46875 97.382812 69.140625 "/>
<path style=" stroke:none;fill-rule:nonzero;fill:rgb(13.729858%,12.159729%,12.548828%);fill-opacity:1;" d="M 60.140625 71.316406 C 60.140625 73.894531 58.046875 75.984375 55.464844 75.984375 C 52.886719 75.984375 50.792969 73.894531 50.792969 71.316406 C 50.792969 68.738281 52.886719 66.648438 55.464844 66.648438 C 58.046875 66.648438 60.140625 68.738281 60.140625 71.316406 "/>
<path style=" stroke:none;fill-rule:nonzero;fill:rgb(93.328857%,91.369629%,90.19928%);fill-opacity:1;" d="M 55.265625 69.140625 C 55.265625 69.8125 54.71875 70.355469 54.050781 70.355469 C 53.378906 70.355469 52.832031 69.8125 52.832031 69.140625 C 52.832031 68.46875 53.378906 67.925781 54.050781 67.925781 C 54.71875 67.925781 55.265625 68.46875 55.265625 69.140625 "/>
</g>
</svg>
