<?xml version="1.0" encoding="UTF-8"?>
<svg xmlns="http://www.w3.org/2000/svg" xmlns:xlink="http://www.w3.org/1999/xlink" width="150pt" height="149.999998pt" viewBox="0 0 150 149.999998" version="1.2">
<defs>
<clipPath id="clip1">
  <path d="M 58 111 L 77 111 L 77 141 L 58 141 Z M 58 111 "/>
</clipPath>
<clipPath id="clip2">
  <path d="M 85 111 L 104 111 L 104 141 L 85 141 Z M 85 111 "/>
</clipPath>
<clipPath id="clip3">
  <path d="M 23.21875 48 L 39 48 L 39 61 L 23.21875 61 Z M 23.21875 48 "/>
</clipPath>
<clipPath id="clip4">
  <path d="M 86 60 L 131.628906 60 L 131.628906 102 L 86 102 Z M 86 60 "/>
</clipPath>
</defs>
<g id="surface1">
<rect x="0" y="0" width="150" height="149.999998" style="fill:rgb(100%,100%,100%);fill-opacity:1;stroke:none;"/>
<rect x="0" y="0" width="150" height="149.999998" style="fill:rgb(100%,100%,100%);fill-opacity:1;stroke:none;"/>
<g clip-path="url(#clip1)" clip-rule="nonzero">
<path style=" stroke:none;fill-rule:nonzero;fill:rgb(95.689392%,45.878601%,8.239746%);fill-opacity:1;" d="M 68.609375 111.855469 L 66.75 111.855469 C 66.015625 111.855469 65.421875 112.457031 65.421875 113.199219 L 65.421875 129.441406 C 65.421875 129.886719 65.203125 130.300781 64.835938 130.550781 L 58.839844 134.671875 C 58.234375 135.085938 58.074219 135.921875 58.488281 136.535156 C 58.902344 137.152344 59.726562 137.3125 60.335938 136.894531 L 64.273438 134.191406 C 65.15625 133.585938 66.351562 134.222656 66.351562 135.300781 L 66.351562 139.84375 C 66.351562 140.585938 66.945312 141.1875 67.679688 141.1875 C 68.414062 141.1875 69.011719 140.585938 69.011719 139.84375 L 69.011719 135.375 C 69.011719 134.296875 70.207031 133.65625 71.089844 134.265625 L 74.816406 136.824219 C 75.421875 137.238281 76.25 137.078125 76.664062 136.464844 C 77.078125 135.851562 76.917969 135.015625 76.3125 134.597656 L 70.523438 130.625 C 70.160156 130.375 69.941406 129.960938 69.941406 129.515625 L 69.941406 113.199219 C 69.941406 112.457031 69.34375 111.855469 68.609375 111.855469 "/>
</g>
<g clip-path="url(#clip2)" clip-rule="nonzero">
<path style=" stroke:none;fill-rule:nonzero;fill:rgb(95.689392%,45.878601%,8.239746%);fill-opacity:1;" d="M 95.53125 111.855469 L 93.671875 111.855469 C 92.9375 111.855469 92.339844 112.457031 92.339844 113.199219 L 92.339844 129.441406 C 92.339844 129.886719 92.121094 130.300781 91.757812 130.550781 L 85.761719 134.671875 C 85.152344 135.085938 84.996094 135.921875 85.410156 136.535156 C 85.820312 137.152344 86.648438 137.3125 87.257812 136.894531 L 91.191406 134.191406 C 92.074219 133.585938 93.269531 134.222656 93.269531 135.300781 L 93.269531 139.84375 C 93.269531 140.585938 93.867188 141.1875 94.601562 141.1875 C 95.335938 141.1875 95.929688 140.585938 95.929688 139.84375 L 95.929688 135.375 C 95.929688 134.296875 97.128906 133.65625 98.011719 134.265625 L 101.738281 136.824219 C 102.34375 137.238281 103.171875 137.078125 103.582031 136.464844 C 103.996094 135.851562 103.839844 135.015625 103.230469 134.597656 L 97.445312 130.625 C 97.082031 130.375 96.859375 129.960938 96.859375 129.515625 L 96.859375 113.199219 C 96.859375 112.457031 96.265625 111.855469 95.53125 111.855469 "/>
</g>
<g clip-path="url(#clip3)" clip-rule="nonzero">
<path style=" stroke:none;fill-rule:nonzero;fill:rgb(95.689392%,45.878601%,8.239746%);fill-opacity:1;" d="M 36.683594 48.75 L 23.210938 52.269531 L 38.917969 60.070312 Z M 36.683594 48.75 "/>
</g>
<path style=" stroke:none;fill-rule:nonzero;fill:rgb(73.728943%,11.369324%,14.118958%);fill-opacity:1;" d="M 49.699219 25.191406 C 49.699219 25.429688 49.699219 25.664062 49.703125 25.898438 C 49.777344 25.648438 49.769531 25.414062 49.699219 25.191406 "/>
<path style=" stroke:none;fill-rule:nonzero;fill:rgb(73.728943%,11.369324%,14.118958%);fill-opacity:1;" d="M 58.960938 16.792969 C 57.703125 15.511719 55.695312 15.042969 54.011719 15.640625 C 52.152344 16.296875 50.859375 18.082031 50.269531 19.980469 C 49.75 21.65625 49.695312 23.433594 49.699219 25.191406 C 49.769531 25.414062 49.777344 25.648438 49.703125 25.898438 C 49.699219 25.664062 49.699219 25.429688 49.699219 25.191406 C 49.382812 24.203125 47.792969 23.625 46.863281 24.335938 C 45.722656 25.203125 45.664062 26.960938 46.195312 28.296875 C 47.355469 31.214844 50.453125 32.753906 53.296875 34.039062 C 55.964844 35.246094 58.632812 36.449219 61.304688 37.65625 C 62.472656 38.183594 63.652344 38.714844 64.902344 38.988281 C 67.28125 39.507812 69.929688 38.988281 71.746094 37.355469 C 73.566406 35.726562 74.382812 32.9375 73.457031 30.664062 C 72.527344 28.390625 69.761719 26.976562 67.476562 27.828125 C 69.085938 25.871094 68.761719 22.601562 66.800781 21.007812 C 64.839844 19.414062 61.609375 19.796875 60.0625 21.804688 C 60.664062 20.105469 60.21875 18.074219 58.960938 16.792969 "/>
<path style=" stroke:none;fill-rule:nonzero;fill:rgb(98.039246%,82.348633%,2.349854%);fill-opacity:1;" d="M 53.425781 30.691406 L 53.011719 30.691406 C 43.984375 30.691406 36.664062 38.777344 36.664062 48.75 L 36.664062 66.253906 C 36.515625 67.683594 36.4375 69.136719 36.4375 70.609375 L 36.4375 84.316406 C 36.4375 105.328125 52 117.015625 71.019531 117.015625 L 95.257812 117.015625 C 114.28125 117.015625 121.097656 104.472656 121.097656 83.457031 L 125.632812 69.753906 L 117.273438 76.167969 C 116.046875 76.457031 114.796875 76.605469 113.542969 76.605469 L 80.820312 76.605469 C 73.632812 76.605469 67.808594 70.167969 67.808594 62.230469 L 67.808594 46.582031 C 67.808594 37.804688 61.367188 30.691406 53.425781 30.691406 "/>
<path style=" stroke:none;fill-rule:nonzero;fill:rgb(13.729858%,12.159729%,12.548828%);fill-opacity:1;" d="M 53.378906 43.683594 C 53.378906 42.304688 52.273438 41.183594 50.902344 41.183594 C 49.535156 41.183594 48.425781 42.304688 48.425781 43.683594 C 48.425781 45.066406 49.535156 46.1875 50.902344 46.1875 C 52.273438 46.1875 53.378906 45.066406 53.378906 43.683594 "/>
<path style=" stroke:none;fill-rule:nonzero;fill:rgb(98.039246%,82.348633%,2.349854%);fill-opacity:1;" d="M 120.863281 68.511719 C 120.195312 69.460938 119.589844 70.453125 119.066406 71.488281 C 119.90625 70.671875 120.511719 69.636719 120.863281 68.511719 "/>
<g clip-path="url(#clip4)" clip-rule="nonzero">
<path style=" stroke:none;fill-rule:nonzero;fill:rgb(98.039246%,82.348633%,2.349854%);fill-opacity:1;" d="M 120.886719 64.167969 C 115.445312 66.828125 110.707031 70.9375 107.285156 75.96875 C 107.167969 74.851562 107.050781 73.734375 106.933594 72.613281 C 104.003906 75.507812 101.074219 78.402344 98.144531 81.292969 C 95.472656 83.933594 89.777344 85.28125 86.117188 84.511719 C 85.671875 88.957031 90.203125 94.972656 93.671875 97.75 C 97.140625 100.523438 101.75 101.640625 106.160156 101.261719 C 111.433594 100.804688 116.496094 98.246094 120.023438 94.257812 C 125.472656 88.097656 126.878906 79.410156 128.058594 71.234375 C 126.886719 71.800781 125.71875 72.367188 124.546875 72.933594 C 128.863281 70.320312 131.601562 65.253906 131.457031 60.175781 C 127.222656 61.832031 123.503906 64.785156 120.863281 68.511719 C 120.511719 69.636719 119.90625 70.671875 119.066406 71.488281 C 119.589844 70.453125 120.195312 69.460938 120.863281 68.511719 C 121.300781 67.109375 121.332031 65.570312 120.886719 64.167969 "/>
</g>
<path style=" stroke:none;fill-rule:nonzero;fill:rgb(97.24884%,68.238831%,4.708862%);fill-opacity:1;" d="M 101.535156 74.304688 C 90.609375 77.789062 78.070312 75.582031 68.957031 68.578125 C 66.679688 78.800781 68.632812 90.101562 74.964844 98.402344 C 81.296875 106.699219 92.113281 111.550781 102.347656 109.839844 C 112.582031 108.132812 121.542969 99.480469 122.878906 89.089844 C 120.488281 93.410156 116.183594 96.605469 111.386719 97.621094 C 106.589844 98.636719 101.382812 97.457031 97.472656 94.472656 C 104.886719 95.933594 113 92.421875 117.105469 86.023438 C 117.105469 86.023438 111.453125 88.632812 98.886719 86.773438 C 98.617188 86.738281 98.46875 86.710938 98.46875 86.710938 C 98.46875 86.710938 104.46875 84.308594 106.917969 81.101562 C 106.917969 81.101562 102.0625 81.789062 94.96875 78.925781 C 97.730469 78.605469 100.28125 76.808594 101.535156 74.304688 "/>
<path style=" stroke:none;fill-rule:nonzero;fill:rgb(73.728943%,11.369324%,14.118958%);fill-opacity:1;" d="M 33.570312 86.191406 C 36.0625 86.132812 38.429688 84.414062 39.3125 82.058594 C 40.148438 79.820312 39.707031 77.324219 39.25 74.976562 C 38.378906 70.46875 37.503906 65.957031 36.632812 61.449219 C 33.210938 65.230469 30.453125 69.625 28.53125 74.367188 C 27.511719 76.882812 26.730469 79.746094 27.710938 82.28125 C 28.621094 84.625 31.078125 86.253906 33.570312 86.191406 "/>
</g>
</svg>
