<?xml version="1.0" encoding="UTF-8"?>
<svg xmlns="http://www.w3.org/2000/svg" xmlns:xlink="http://www.w3.org/1999/xlink" width="150pt" height="149.999998pt" viewBox="0 0 150 149.999998" version="1.2">
<defs>
<clipPath id="clip1">
  <path d="M 15.035156 62.636719 L 58.882812 62.636719 L 58.882812 106.535156 L 15.035156 106.535156 Z M 15.035156 62.636719 "/>
</clipPath>
<clipPath id="clip2">
  <path d="M 89 62.636719 L 132.75 62.636719 L 132.75 106.535156 L 89 106.535156 Z M 89 62.636719 "/>
</clipPath>
<clipPath id="clip3">
  <path d="M 78 30.785156 L 89 30.785156 L 89 35 L 78 35 Z M 78 30.785156 "/>
</clipPath>
</defs>
<g id="surface1">
<path style=" stroke:none;fill-rule:nonzero;fill:rgb(72.549438%,21.179199%,63.529968%);fill-opacity:1;" d="M 95.382812 44.097656 L 104.105469 61.863281 L 119.605469 56.503906 L 115.550781 37.125 Z M 103.839844 62.503906 L 94.65625 43.800781 L 115.9375 36.441406 L 120.207031 56.84375 L 103.839844 62.503906 "/>
<path style=" stroke:none;fill-rule:nonzero;fill:rgb(72.549438%,21.179199%,63.529968%);fill-opacity:1;" d="M 111.828125 59.46875 L 105.273438 40.402344 L 105.761719 40.234375 L 112.320312 59.300781 L 111.828125 59.46875 "/>
<path style=" stroke:none;fill-rule:nonzero;fill:rgb(72.549438%,21.179199%,63.529968%);fill-opacity:1;" d="M 108.230469 60.636719 L 99.226562 42.53125 L 99.6875 42.296875 L 108.691406 60.402344 L 108.230469 60.636719 "/>
<path style=" stroke:none;fill-rule:nonzero;fill:rgb(72.549438%,21.179199%,63.529968%);fill-opacity:1;" d="M 115.488281 58.054688 L 111.449219 38.230469 L 111.957031 38.125 L 115.996094 57.949219 L 115.488281 58.054688 "/>
<path style=" stroke:none;fill-rule:nonzero;fill:rgb(72.549438%,21.179199%,63.529968%);fill-opacity:1;" d="M 98.121094 50.457031 L 97.949219 49.964844 L 117.058594 43.355469 L 117.226562 43.847656 L 98.121094 50.457031 "/>
<path style=" stroke:none;fill-rule:nonzero;fill:rgb(72.549438%,21.179199%,63.529968%);fill-opacity:1;" d="M 101.488281 57.324219 L 101.320312 56.832031 L 118.5625 50.867188 L 118.734375 51.359375 L 101.488281 57.324219 "/>
<path style=" stroke:none;fill-rule:nonzero;fill:rgb(72.549438%,21.179199%,63.529968%);fill-opacity:1;" d="M 116.988281 37.238281 L 94.324219 45.074219 L 93.675781 43.1875 L 116.335938 35.351562 L 116.988281 37.238281 "/>
<path style=" stroke:none;fill-rule:nonzero;fill:rgb(72.549438%,21.179199%,63.529968%);fill-opacity:1;" d="M 94.105469 48.042969 C 93.964844 48.042969 93.828125 47.964844 93.761719 47.828125 C 93.660156 47.636719 93.738281 47.402344 93.929688 47.300781 L 95.914062 46.28125 C 96.105469 46.183594 96.339844 46.257812 96.4375 46.449219 C 96.535156 46.644531 96.460938 46.878906 96.269531 46.976562 L 94.285156 48 C 94.226562 48.027344 94.167969 48.042969 94.105469 48.042969 "/>
<path style=" stroke:none;fill-rule:nonzero;fill:rgb(72.549438%,21.179199%,63.529968%);fill-opacity:1;" d="M 101.964844 63.558594 C 101.824219 63.558594 101.683594 63.480469 101.617188 63.347656 C 101.519531 63.152344 101.59375 62.917969 101.785156 62.820312 L 103.769531 61.800781 C 103.960938 61.699219 104.195312 61.777344 104.292969 61.96875 C 104.390625 62.160156 104.316406 62.394531 104.125 62.496094 L 102.140625 63.515625 C 102.085938 63.546875 102.023438 63.558594 101.964844 63.558594 "/>
<path style=" stroke:none;fill-rule:nonzero;fill:rgb(60.778809%,8.628845%,36.859131%);fill-opacity:1;" d="M 37.382812 83.316406 L 36.878906 83.316406 L 36.878906 64.367188 L 37.382812 64.367188 L 37.382812 83.316406 "/>
<path style=" stroke:none;fill-rule:nonzero;fill:rgb(60.778809%,8.628845%,36.859131%);fill-opacity:1;" d="M 38.0625 83.765625 L 37.628906 83.507812 L 47.253906 67.195312 L 47.6875 67.453125 L 38.0625 83.765625 "/>
<path style=" stroke:none;fill-rule:nonzero;fill:rgb(60.778809%,8.628845%,36.859131%);fill-opacity:1;" d="M 38.425781 84.496094 L 38.183594 84.054688 L 54.746094 74.929688 L 54.988281 75.375 L 38.425781 84.496094 "/>
<path style=" stroke:none;fill-rule:nonzero;fill:rgb(60.778809%,8.628845%,36.859131%);fill-opacity:1;" d="M 57.25 85.917969 L 38.363281 85.3125 L 38.378906 84.808594 L 57.269531 85.414062 L 57.25 85.917969 "/>
<path style=" stroke:none;fill-rule:nonzero;fill:rgb(60.778809%,8.628845%,36.859131%);fill-opacity:1;" d="M 53.84375 96.152344 L 37.894531 85.980469 L 38.164062 85.554688 L 54.113281 95.722656 L 53.84375 96.152344 "/>
<path style=" stroke:none;fill-rule:nonzero;fill:rgb(60.778809%,8.628845%,36.859131%);fill-opacity:1;" d="M 45.714844 103.214844 L 37.152344 86.320312 L 37.601562 86.089844 L 46.164062 102.988281 L 45.714844 103.214844 "/>
<path style=" stroke:none;fill-rule:nonzero;fill:rgb(60.778809%,8.628845%,36.859131%);fill-opacity:1;" d="M 35.636719 105.175781 L 35.132812 105.144531 L 36.34375 86.230469 L 36.847656 86.265625 L 35.636719 105.175781 "/>
<path style=" stroke:none;fill-rule:nonzero;fill:rgb(60.778809%,8.628845%,36.859131%);fill-opacity:1;" d="M 25.460938 101.6875 L 25.046875 101.402344 L 35.691406 85.742188 L 36.105469 86.027344 L 25.460938 101.6875 "/>
<path style=" stroke:none;fill-rule:nonzero;fill:rgb(60.778809%,8.628845%,36.859131%);fill-opacity:1;" d="M 18.476562 93.488281 L 18.261719 93.027344 L 35.378906 84.988281 L 35.59375 85.445312 L 18.476562 93.488281 "/>
<path style=" stroke:none;fill-rule:nonzero;fill:rgb(60.778809%,8.628845%,36.859131%);fill-opacity:1;" d="M 35.445312 84.679688 L 16.628906 82.863281 L 16.679688 82.359375 L 35.492188 84.179688 L 35.445312 84.679688 "/>
<path style=" stroke:none;fill-rule:nonzero;fill:rgb(60.778809%,8.628845%,36.859131%);fill-opacity:1;" d="M 35.703125 83.949219 L 20.4375 72.777344 L 20.734375 72.367188 L 36 83.539062 L 35.703125 83.949219 "/>
<path style=" stroke:none;fill-rule:nonzero;fill:rgb(60.778809%,8.628845%,36.859131%);fill-opacity:1;" d="M 36.300781 83.449219 L 28.832031 66.039062 L 29.296875 65.839844 L 36.761719 83.25 L 36.300781 83.449219 "/>
<path style=" stroke:none;fill-rule:evenodd;fill:rgb(70.199585%,71.369934%,72.549438%);fill-opacity:1;" d="M 36.957031 101.085938 C 27.96875 101.085938 20.679688 93.777344 20.679688 84.765625 C 20.679688 75.746094 27.96875 68.441406 36.957031 68.441406 C 45.949219 68.441406 53.234375 75.746094 53.234375 84.765625 C 53.234375 93.777344 45.949219 101.085938 36.957031 101.085938 Z M 36.957031 65.308594 C 26.242188 65.308594 17.558594 74.019531 17.558594 84.765625 C 17.558594 95.507812 26.242188 104.21875 36.957031 104.21875 C 47.671875 104.21875 56.359375 95.507812 56.359375 84.765625 C 56.359375 74.019531 47.671875 65.308594 36.957031 65.308594 "/>
<path style=" stroke:none;fill-rule:nonzero;fill:rgb(60.778809%,8.628845%,36.859131%);fill-opacity:1;" d="M 36.957031 68.625 C 28.082031 68.625 20.863281 75.863281 20.863281 84.765625 C 20.863281 93.660156 28.082031 100.902344 36.957031 100.902344 C 45.832031 100.902344 53.050781 93.660156 53.050781 84.765625 C 53.050781 75.863281 45.832031 68.625 36.957031 68.625 Z M 36.957031 101.273438 C 27.878906 101.273438 20.496094 93.867188 20.496094 84.765625 C 20.496094 75.660156 27.878906 68.253906 36.957031 68.253906 C 46.035156 68.253906 53.421875 75.660156 53.421875 84.765625 C 53.421875 93.867188 46.035156 101.273438 36.957031 101.273438 Z M 36.957031 65.496094 C 26.363281 65.496094 17.742188 74.136719 17.742188 84.765625 C 17.742188 95.386719 26.363281 104.03125 36.957031 104.03125 C 47.554688 104.03125 56.171875 95.386719 56.171875 84.765625 C 56.171875 74.136719 47.554688 65.496094 36.957031 65.496094 Z M 36.957031 104.402344 C 26.160156 104.402344 17.371094 95.59375 17.371094 84.765625 C 17.371094 73.933594 26.160156 65.125 36.957031 65.125 C 47.757812 65.125 56.542969 73.933594 56.542969 84.765625 C 56.542969 95.59375 47.757812 104.402344 36.957031 104.402344 "/>
<g clip-path="url(#clip1)" clip-rule="nonzero">
<path style=" stroke:none;fill-rule:evenodd;fill:rgb(60.778809%,8.628845%,36.859131%);fill-opacity:1;" d="M 36.957031 103.210938 C 26.796875 103.210938 18.5625 94.953125 18.5625 84.765625 C 18.5625 74.574219 26.796875 66.316406 36.957031 66.316406 C 47.117188 66.316406 55.351562 74.574219 55.351562 84.765625 C 55.351562 94.953125 47.117188 103.210938 36.957031 103.210938 Z M 36.957031 62.78125 C 24.851562 62.78125 15.035156 72.621094 15.035156 84.765625 C 15.035156 96.90625 24.851562 106.746094 36.957031 106.746094 C 49.066406 106.746094 58.878906 96.90625 58.878906 84.765625 C 58.878906 72.621094 49.066406 62.78125 36.957031 62.78125 "/>
</g>
<path style=" stroke:none;fill-rule:nonzero;fill:rgb(60.778809%,8.628845%,36.859131%);fill-opacity:1;" d="M 111.375 83.316406 L 110.871094 83.316406 L 110.871094 64.367188 L 111.375 64.367188 L 111.375 83.316406 "/>
<path style=" stroke:none;fill-rule:nonzero;fill:rgb(60.778809%,8.628845%,36.859131%);fill-opacity:1;" d="M 112.058594 83.765625 L 111.625 83.507812 L 121.246094 67.195312 L 121.683594 67.453125 L 112.058594 83.765625 "/>
<path style=" stroke:none;fill-rule:nonzero;fill:rgb(60.778809%,8.628845%,36.859131%);fill-opacity:1;" d="M 112.417969 84.496094 L 112.175781 84.054688 L 128.742188 74.929688 L 128.984375 75.375 L 112.417969 84.496094 "/>
<path style=" stroke:none;fill-rule:nonzero;fill:rgb(60.778809%,8.628845%,36.859131%);fill-opacity:1;" d="M 131.246094 85.917969 L 112.355469 85.3125 L 112.371094 84.808594 L 131.261719 85.414062 L 131.246094 85.917969 "/>
<path style=" stroke:none;fill-rule:nonzero;fill:rgb(60.778809%,8.628845%,36.859131%);fill-opacity:1;" d="M 127.839844 96.152344 L 111.890625 85.980469 L 112.160156 85.554688 L 128.109375 95.722656 L 127.839844 96.152344 "/>
<path style=" stroke:none;fill-rule:nonzero;fill:rgb(60.778809%,8.628845%,36.859131%);fill-opacity:1;" d="M 119.710938 103.214844 L 111.148438 86.320312 L 111.597656 86.089844 L 120.160156 102.988281 L 119.710938 103.214844 "/>
<path style=" stroke:none;fill-rule:nonzero;fill:rgb(60.778809%,8.628845%,36.859131%);fill-opacity:1;" d="M 109.628906 105.175781 L 109.128906 105.144531 L 110.335938 86.230469 L 110.839844 86.265625 L 109.628906 105.175781 "/>
<path style=" stroke:none;fill-rule:nonzero;fill:rgb(60.778809%,8.628845%,36.859131%);fill-opacity:1;" d="M 99.457031 101.6875 L 99.039062 101.402344 L 109.683594 85.742188 L 110.101562 86.027344 L 99.457031 101.6875 "/>
<path style=" stroke:none;fill-rule:nonzero;fill:rgb(60.778809%,8.628845%,36.859131%);fill-opacity:1;" d="M 92.472656 93.488281 L 92.257812 93.027344 L 109.371094 84.988281 L 109.585938 85.445312 L 92.472656 93.488281 "/>
<path style=" stroke:none;fill-rule:nonzero;fill:rgb(60.778809%,8.628845%,36.859131%);fill-opacity:1;" d="M 109.4375 84.679688 L 90.625 82.863281 L 90.671875 82.359375 L 109.484375 84.179688 L 109.4375 84.679688 "/>
<path style=" stroke:none;fill-rule:nonzero;fill:rgb(60.778809%,8.628845%,36.859131%);fill-opacity:1;" d="M 109.699219 83.949219 L 94.429688 72.777344 L 94.726562 72.367188 L 109.996094 83.539062 L 109.699219 83.949219 "/>
<path style=" stroke:none;fill-rule:nonzero;fill:rgb(60.778809%,8.628845%,36.859131%);fill-opacity:1;" d="M 110.292969 83.449219 L 102.828125 66.039062 L 103.289062 65.839844 L 110.757812 83.25 L 110.292969 83.449219 "/>
<path style=" stroke:none;fill-rule:evenodd;fill:rgb(70.199585%,71.369934%,72.549438%);fill-opacity:1;" d="M 110.953125 101.085938 C 101.960938 101.085938 94.671875 93.777344 94.671875 84.765625 C 94.671875 75.746094 101.960938 68.441406 110.953125 68.441406 C 119.941406 68.441406 127.230469 75.746094 127.230469 84.765625 C 127.230469 93.777344 119.941406 101.085938 110.953125 101.085938 Z M 110.953125 65.308594 C 100.238281 65.308594 91.550781 74.019531 91.550781 84.765625 C 91.550781 95.507812 100.238281 104.21875 110.953125 104.21875 C 121.664062 104.21875 130.351562 95.507812 130.351562 84.765625 C 130.351562 74.019531 121.664062 65.308594 110.953125 65.308594 "/>
<path style=" stroke:none;fill-rule:nonzero;fill:rgb(60.778809%,8.628845%,36.859131%);fill-opacity:1;" d="M 110.953125 68.625 C 102.078125 68.625 94.859375 75.863281 94.859375 84.765625 C 94.859375 93.660156 102.078125 100.902344 110.953125 100.902344 C 119.824219 100.902344 127.042969 93.660156 127.042969 84.765625 C 127.042969 75.863281 119.824219 68.625 110.953125 68.625 Z M 110.953125 101.273438 C 101.875 101.273438 94.488281 93.867188 94.488281 84.765625 C 94.488281 75.660156 101.875 68.253906 110.953125 68.253906 C 120.027344 68.253906 127.414062 75.660156 127.414062 84.765625 C 127.414062 93.867188 120.027344 101.273438 110.953125 101.273438 Z M 110.953125 65.496094 C 100.355469 65.496094 91.738281 74.136719 91.738281 84.765625 C 91.738281 95.386719 100.355469 104.03125 110.953125 104.03125 C 121.546875 104.03125 130.167969 95.386719 130.167969 84.765625 C 130.167969 74.136719 121.546875 65.496094 110.953125 65.496094 Z M 110.953125 104.402344 C 100.152344 104.402344 91.367188 95.59375 91.367188 84.765625 C 91.367188 73.933594 100.152344 65.125 110.953125 65.125 C 121.75 65.125 130.535156 73.933594 130.535156 84.765625 C 130.535156 95.59375 121.75 104.402344 110.953125 104.402344 "/>
<g clip-path="url(#clip2)" clip-rule="nonzero">
<path style=" stroke:none;fill-rule:evenodd;fill:rgb(60.778809%,8.628845%,36.859131%);fill-opacity:1;" d="M 110.953125 103.210938 C 100.792969 103.210938 92.558594 94.953125 92.558594 84.765625 C 92.558594 74.574219 100.792969 66.316406 110.953125 66.316406 C 121.109375 66.316406 129.347656 74.574219 129.347656 84.765625 C 129.347656 94.953125 121.109375 103.210938 110.953125 103.210938 Z M 110.953125 62.78125 C 98.84375 62.78125 89.027344 72.621094 89.027344 84.765625 C 89.027344 96.90625 98.84375 106.746094 110.953125 106.746094 C 123.058594 106.746094 132.875 96.90625 132.875 84.765625 C 132.875 72.621094 123.058594 62.78125 110.953125 62.78125 "/>
</g>
<path style=" stroke:none;fill-rule:evenodd;fill:rgb(60.778809%,8.628845%,36.859131%);fill-opacity:1;" d="M 61.695312 44.792969 C 61.695312 44.792969 49.085938 50.183594 45.074219 45.585938 C 45.074219 45.585938 43.929688 41.703125 47.4375 42.136719 C 50.949219 42.566406 52.167969 43.140625 54.601562 42.855469 C 57.039062 42.566406 60.121094 42.855469 60.121094 42.855469 C 60.121094 42.855469 61.335938 43.332031 61.695312 43.574219 C 62.339844 44.003906 61.695312 44.792969 61.695312 44.792969 "/>
<path style=" stroke:none;fill-rule:nonzero;fill:rgb(60.778809%,8.628845%,36.859131%);fill-opacity:1;" d="M 71.355469 87.769531 L 68.816406 88.746094 L 52.609375 46.503906 L 55.148438 45.523438 L 71.355469 87.769531 "/>
<path style=" stroke:none;fill-rule:nonzero;fill:rgb(60.778809%,8.628845%,36.859131%);fill-opacity:1;" d="M 113.410156 86.226562 L 110.953125 87.402344 L 91.535156 46.539062 L 93.992188 45.367188 L 113.410156 86.226562 "/>
<path style=" stroke:none;fill-rule:nonzero;fill:rgb(60.778809%,8.628845%,36.859131%);fill-opacity:1;" d="M 97.6875 55.378906 L 99.246094 57.671875 L 68.816406 87.855469 L 66.902344 85.917969 L 97.6875 55.378906 "/>
<path style=" stroke:none;fill-rule:nonzero;fill:rgb(60.778809%,8.628845%,36.859131%);fill-opacity:1;" d="M 69.964844 84.835938 L 69.832031 87.5625 L 35.65625 85.902344 L 35.789062 83.175781 L 69.964844 84.835938 "/>
<path style=" stroke:none;fill-rule:nonzero;fill:rgb(60.778809%,8.628845%,36.859131%);fill-opacity:1;" d="M 95.167969 49.097656 L 96.335938 51.972656 C 96.335938 51.972656 82.433594 70.109375 74.574219 73.007812 C 71.945312 73.976562 63.414062 72.164062 63.414062 72.164062 L 62.382812 68.789062 C 62.382812 68.789062 71.457031 70.554688 74.234375 69.507812 C 81.554688 66.746094 95.167969 49.097656 95.167969 49.097656 "/>
<path style=" stroke:none;fill-rule:nonzero;fill:rgb(60.778809%,8.628845%,36.859131%);fill-opacity:1;" d="M 57.597656 57.554688 L 59.75 59.21875 L 39.113281 86.070312 L 36.957031 84.402344 L 57.597656 57.554688 "/>
<path style=" stroke:none;fill-rule:nonzero;fill:rgb(70.199585%,71.369934%,72.549438%);fill-opacity:1;" d="M 90.4375 42.136719 C 91.007812 40.484375 93.804688 38.6875 93.804688 38.6875 C 93.804688 38.6875 97.097656 36.605469 93.804688 35.167969 C 93.804688 35.167969 92.585938 34.160156 87.929688 34.019531 C 83.273438 33.875 78.398438 34.019531 78.398438 34.019531 L 78.398438 31 L 87.570312 31 C 87.570312 31 91.578125 31.503906 92.871094 31.863281 C 95.082031 32.472656 101.910156 35.453125 94.449219 40.914062 C 94.449219 40.914062 92.488281 41.992188 92.539062 42.566406 C 92.585938 43.140625 93.730469 45.777344 93.730469 45.777344 L 91.941406 46.527344 C 91.941406 46.527344 89.863281 43.789062 90.4375 42.136719 "/>
<path style=" stroke:none;fill-rule:nonzero;fill:rgb(73.728943%,38.038635%,55.688477%);fill-opacity:1;" d="M 75.785156 85.113281 C 75.785156 94.429688 66.035156 92.554688 54.003906 92.554688 C 38.925781 92.554688 32.226562 89.222656 32.226562 85.113281 C 32.226562 81 36.769531 78.699219 54.003906 77.667969 C 66.011719 76.949219 75.785156 76.328125 75.785156 85.113281 "/>
<path style=" stroke:none;fill-rule:nonzero;fill:rgb(60.778809%,8.628845%,36.859131%);fill-opacity:1;" d="M 41.308594 84.9375 C 41.308594 87.453125 39.277344 89.492188 36.769531 89.492188 C 34.257812 89.492188 32.226562 87.453125 32.226562 84.9375 C 32.226562 82.421875 34.257812 80.382812 36.769531 80.382812 C 39.277344 80.382812 41.308594 82.421875 41.308594 84.9375 "/>
<path style=" stroke:none;fill-rule:nonzero;fill:rgb(60.778809%,8.628845%,36.859131%);fill-opacity:1;" d="M 68.789062 79.21875 C 65.550781 79.21875 62.914062 81.863281 62.914062 85.109375 C 62.914062 88.359375 65.550781 91.003906 68.789062 91.003906 C 72.027344 91.003906 74.664062 88.359375 74.664062 85.109375 C 74.664062 81.863281 72.027344 79.21875 68.789062 79.21875 Z M 68.789062 92.296875 C 64.839844 92.296875 61.625 89.074219 61.625 85.109375 C 61.625 81.148438 64.839844 77.925781 68.789062 77.925781 C 72.738281 77.925781 75.953125 81.148438 75.953125 85.109375 C 75.953125 89.074219 72.738281 92.296875 68.789062 92.296875 "/>
<path style=" stroke:none;fill-rule:nonzero;fill:rgb(60.778809%,8.628845%,36.859131%);fill-opacity:1;" d="M 68.910156 84.753906 C 68.550781 84.753906 68.265625 84.464844 68.265625 84.109375 L 68.265625 78.699219 C 68.265625 78.34375 68.550781 78.054688 68.910156 78.054688 C 69.265625 78.054688 69.554688 78.34375 69.554688 78.699219 L 69.554688 84.109375 C 69.554688 84.464844 69.265625 84.753906 68.910156 84.753906 "/>
<path style=" stroke:none;fill-rule:nonzero;fill:rgb(60.778809%,8.628845%,36.859131%);fill-opacity:1;" d="M 69.746094 85.289062 C 69.527344 85.289062 69.3125 85.175781 69.191406 84.972656 C 69.007812 84.667969 69.109375 84.269531 69.414062 84.085938 L 74.042969 81.308594 C 74.347656 81.125 74.742188 81.222656 74.925781 81.53125 C 75.109375 81.835938 75.007812 82.234375 74.703125 82.417969 L 70.074219 85.195312 C 69.972656 85.257812 69.859375 85.289062 69.746094 85.289062 "/>
<path style=" stroke:none;fill-rule:nonzero;fill:rgb(60.778809%,8.628845%,36.859131%);fill-opacity:1;" d="M 74.472656 88.835938 C 74.371094 88.835938 74.265625 88.808594 74.167969 88.757812 L 69.414062 86.203125 C 69.101562 86.035156 68.980469 85.644531 69.148438 85.328125 C 69.320312 85.011719 69.707031 84.894531 70.023438 85.0625 L 74.777344 87.617188 C 75.089844 87.785156 75.207031 88.179688 75.039062 88.492188 C 74.925781 88.710938 74.703125 88.835938 74.472656 88.835938 "/>
<path style=" stroke:none;fill-rule:nonzero;fill:rgb(60.778809%,8.628845%,36.859131%);fill-opacity:1;" d="M 69.109375 92.167969 C 68.769531 92.167969 68.484375 91.898438 68.46875 91.554688 L 68.210938 86.152344 C 68.195312 85.796875 68.46875 85.492188 68.824219 85.476562 C 69.183594 85.457031 69.480469 85.734375 69.5 86.089844 L 69.757812 91.492188 C 69.773438 91.847656 69.5 92.152344 69.140625 92.167969 C 69.132812 92.167969 69.121094 92.167969 69.109375 92.167969 "/>
<path style=" stroke:none;fill-rule:nonzero;fill:rgb(60.778809%,8.628845%,36.859131%);fill-opacity:1;" d="M 63.503906 89.273438 C 63.296875 89.273438 63.09375 89.171875 62.96875 88.984375 C 62.769531 88.6875 62.851562 88.285156 63.148438 88.085938 L 67.636719 85.089844 C 67.933594 84.894531 68.335938 84.972656 68.53125 85.269531 C 68.726562 85.570312 68.648438 85.96875 68.351562 86.167969 L 63.863281 89.164062 C 63.753906 89.238281 63.628906 89.273438 63.503906 89.273438 "/>
<path style=" stroke:none;fill-rule:nonzero;fill:rgb(60.778809%,8.628845%,36.859131%);fill-opacity:1;" d="M 67.972656 85.28125 C 67.882812 85.28125 67.785156 85.261719 67.695312 85.21875 L 62.828125 82.894531 C 62.507812 82.742188 62.367188 82.355469 62.523438 82.035156 C 62.675781 81.710938 63.058594 81.574219 63.382812 81.726562 L 68.25 84.050781 C 68.574219 84.207031 68.710938 84.589844 68.554688 84.914062 C 68.445312 85.144531 68.214844 85.28125 67.972656 85.28125 "/>
<path style=" stroke:none;fill-rule:nonzero;fill:rgb(60.778809%,8.628845%,36.859131%);fill-opacity:1;" d="M 71.007812 85.109375 C 71.007812 86.34375 70.015625 87.339844 68.789062 87.339844 C 67.5625 87.339844 66.566406 86.34375 66.566406 85.109375 C 66.566406 83.882812 67.5625 82.882812 68.789062 82.882812 C 70.015625 82.882812 71.007812 83.882812 71.007812 85.109375 "/>
<path style=" stroke:none;fill-rule:nonzero;fill:rgb(70.199585%,71.369934%,72.549438%);fill-opacity:1;" d="M 74.101562 95.835938 L 72.503906 96.554688 L 67.917969 85.476562 L 69.511719 84.757812 L 74.101562 95.835938 "/>
<path style=" stroke:none;fill-rule:nonzero;fill:rgb(60.778809%,8.628845%,36.859131%);fill-opacity:1;" d="M 77.453125 96.554688 C 77.453125 97.589844 76.617188 98.421875 75.589844 98.421875 L 69.855469 98.421875 C 68.828125 98.421875 67.996094 97.589844 67.996094 96.554688 C 67.996094 95.523438 68.828125 94.6875 69.855469 94.6875 L 75.589844 94.6875 C 76.617188 94.6875 77.453125 95.523438 77.453125 96.554688 "/>
<path style=" stroke:none;fill-rule:nonzero;fill:rgb(60.778809%,8.628845%,36.859131%);fill-opacity:1;" d="M 115.914062 85.058594 C 115.914062 87.574219 113.878906 89.613281 111.371094 89.613281 C 108.863281 89.613281 106.832031 87.574219 106.832031 85.058594 C 106.832031 82.542969 108.863281 80.503906 111.371094 80.503906 C 113.878906 80.503906 115.914062 82.542969 115.914062 85.058594 "/>
<g clip-path="url(#clip3)" clip-rule="nonzero">
<path style=" stroke:none;fill-rule:nonzero;fill:rgb(60.778809%,8.628845%,36.859131%);fill-opacity:1;" d="M 88.617188 34.105469 L 78.082031 34.105469 L 78.082031 30.785156 L 88.617188 30.785156 L 88.617188 34.105469 "/>
</g>
</g>
</svg>
