<?xml version="1.0" encoding="UTF-8"?>
<svg xmlns="http://www.w3.org/2000/svg" xmlns:xlink="http://www.w3.org/1999/xlink" width="150pt" height="149.999998pt" viewBox="0 0 150 149.999998" version="1.2">
<defs>
<clipPath id="clip1">
  <path d="M 13.113281 47.597656 L 139.6875 47.597656 L 139.6875 97 L 13.113281 97 Z M 13.113281 47.597656 "/>
</clipPath>
<clipPath id="clip2">
  <path d="M 13.113281 54 L 22 54 L 22 83 L 13.113281 83 Z M 13.113281 54 "/>
</clipPath>
<clipPath id="clip3">
  <path d="M 38 86 L 53 86 L 53 100.636719 L 38 100.636719 Z M 38 86 "/>
</clipPath>
<clipPath id="clip4">
  <path d="M 100 86 L 114 86 L 114 100.636719 L 100 100.636719 Z M 100 86 "/>
</clipPath>
<clipPath id="clip5">
  <path d="M 13.113281 84 L 20 84 L 20 90 L 13.113281 90 Z M 13.113281 84 "/>
</clipPath>
<clipPath id="clip6">
  <path d="M 134 78 L 139.6875 78 L 139.6875 90 L 134 90 Z M 134 78 "/>
</clipPath>
</defs>
<g id="surface1">
<g clip-path="url(#clip1)" clip-rule="nonzero">
<path style=" stroke:none;fill-rule:nonzero;fill:rgb(32.548523%,77.249146%,73.329163%);fill-opacity:1;" d="M 139.6875 53.136719 L 139.6875 91.457031 C 139.6875 93.128906 138.945312 96.515625 134.601562 96.515625 L 20.234375 96.515625 C 15.597656 96.515625 13.109375 93.46875 13.109375 90.441406 C 13.109375 90.289062 13.109375 90.136719 13.113281 89.984375 C 13.113281 88.394531 13.140625 86.828125 13.195312 85.417969 C 13.242188 84.132812 13.304688 82.976562 13.390625 82.058594 C 13.992188 75.546875 15.546875 62.265625 18 54.777344 C 18.03125 54.679688 18.066406 54.585938 18.097656 54.488281 C 18.144531 54.347656 18.191406 54.210938 18.238281 54.070312 C 18.910156 52.171875 19.648438 50.710938 20.449219 49.9375 C 21.5625 48.863281 23.765625 47.589844 27.1875 47.589844 L 132.777344 47.589844 C 139.222656 47.589844 139.6875 53.136719 139.6875 53.136719 "/>
</g>
<g clip-path="url(#clip2)" clip-rule="nonzero">
<path style=" stroke:none;fill-rule:nonzero;fill:rgb(31.369019%,22.749329%,36.079407%);fill-opacity:1;" d="M 19.574219 71.574219 C 18.820312 78.011719 18.597656 81.449219 13.390625 82.085938 C 13.390625 82.085938 13.390625 82.074219 13.390625 82.058594 C 13.992188 75.546875 15.546875 62.265625 18 54.777344 C 18.03125 54.679688 18.066406 54.585938 18.097656 54.488281 C 18.144531 54.347656 18.191406 54.210938 18.238281 54.070312 C 23.191406 54.070312 20.8125 61.046875 19.574219 71.574219 "/>
</g>
<path style=" stroke:none;fill-rule:nonzero;fill:rgb(31.369019%,22.749329%,36.079407%);fill-opacity:1;" d="M 26.902344 81.9375 L 26.902344 55.757812 C 26.902344 54.636719 27.820312 53.726562 28.945312 53.726562 L 45.261719 53.726562 C 46.390625 53.726562 47.304688 54.636719 47.304688 55.757812 L 47.304688 66.507812 C 47.304688 79.34375 34.691406 82.976562 29.300781 83.941406 C 28.050781 84.164062 26.902344 83.203125 26.902344 81.9375 "/>
<path style=" stroke:none;fill-rule:nonzero;fill:rgb(31.369019%,22.749329%,36.079407%);fill-opacity:1;" d="M 133.789062 56.226562 L 133.789062 73.238281 C 133.789062 74.359375 132.875 75.269531 131.746094 75.269531 L 55.484375 75.269531 C 54.359375 75.269531 53.441406 74.359375 53.441406 73.238281 L 53.441406 56.226562 C 53.441406 55.105469 54.359375 54.195312 55.484375 54.195312 L 131.746094 54.195312 C 132.875 54.195312 133.789062 55.105469 133.789062 56.226562 "/>
<g clip-path="url(#clip3)" clip-rule="nonzero">
<path style=" stroke:none;fill-rule:nonzero;fill:rgb(31.369019%,22.749329%,36.079407%);fill-opacity:1;" d="M 52.617188 93.804688 C 52.617188 97.570312 49.554688 100.621094 45.769531 100.621094 C 41.984375 100.621094 38.917969 97.570312 38.917969 93.804688 C 38.917969 90.042969 41.984375 86.992188 45.769531 86.992188 C 49.554688 86.992188 52.617188 90.042969 52.617188 93.804688 "/>
</g>
<g clip-path="url(#clip4)" clip-rule="nonzero">
<path style=" stroke:none;fill-rule:nonzero;fill:rgb(31.369019%,22.749329%,36.079407%);fill-opacity:1;" d="M 113.878906 93.804688 C 113.878906 97.570312 110.8125 100.621094 107.027344 100.621094 C 103.246094 100.621094 100.179688 97.570312 100.179688 93.804688 C 100.179688 90.042969 103.246094 86.992188 107.027344 86.992188 C 110.8125 86.992188 113.878906 90.042969 113.878906 93.804688 "/>
</g>
<path style=" stroke:none;fill-rule:nonzero;fill:rgb(90.589905%,90.589905%,90.19928%);fill-opacity:1;" d="M 48.652344 93.804688 C 48.652344 95.390625 47.359375 96.671875 45.769531 96.671875 C 44.179688 96.671875 42.890625 95.390625 42.890625 93.804688 C 42.890625 92.222656 44.179688 90.941406 45.769531 90.941406 C 47.359375 90.941406 48.652344 92.222656 48.652344 93.804688 "/>
<path style=" stroke:none;fill-rule:nonzero;fill:rgb(90.589905%,90.589905%,90.19928%);fill-opacity:1;" d="M 109.910156 93.804688 C 109.910156 95.390625 108.621094 96.671875 107.027344 96.671875 C 105.4375 96.671875 104.148438 95.390625 104.148438 93.804688 C 104.148438 92.222656 105.4375 90.941406 107.027344 90.941406 C 108.621094 90.941406 109.910156 92.222656 109.910156 93.804688 "/>
<g clip-path="url(#clip5)" clip-rule="nonzero">
<path style=" stroke:none;fill-rule:nonzero;fill:rgb(90.589905%,90.589905%,90.19928%);fill-opacity:1;" d="M 19.917969 85.789062 C 19.691406 88.019531 18.359375 89.832031 13.113281 89.984375 C 13.113281 88.394531 13.140625 86.828125 13.195312 85.417969 C 13.601562 85.285156 15.703125 84.640625 18.375 84.28125 C 19.25 84.164062 20.007812 84.910156 19.917969 85.789062 "/>
</g>
<g clip-path="url(#clip6)" clip-rule="nonzero">
<path style=" stroke:none;fill-rule:nonzero;fill:rgb(90.589905%,90.589905%,90.19928%);fill-opacity:1;" d="M 139.6875 89.066406 L 136.945312 89.066406 C 135.371094 89.066406 134.09375 87.796875 134.09375 86.230469 L 134.09375 84.554688 C 134.09375 81.484375 136.597656 78.992188 139.6875 78.992188 L 139.6875 89.066406 "/>
</g>
<path style=" stroke:none;fill-rule:nonzero;fill:rgb(25.099182%,16.468811%,26.669312%);fill-opacity:1;" d="M 74.550781 54.195312 L 74.550781 75.269531 L 72.511719 75.269531 L 72.511719 54.195312 L 74.550781 54.195312 "/>
<path style=" stroke:none;fill-rule:nonzero;fill:rgb(25.099182%,16.468811%,26.669312%);fill-opacity:1;" d="M 94.636719 54.195312 L 94.636719 75.269531 L 92.59375 75.269531 L 92.59375 54.195312 L 94.636719 54.195312 "/>
<path style=" stroke:none;fill-rule:nonzero;fill:rgb(25.099182%,16.468811%,26.669312%);fill-opacity:1;" d="M 114.722656 54.195312 L 114.722656 75.269531 L 112.679688 75.269531 L 112.679688 54.195312 L 114.722656 54.195312 "/>
</g>
</svg>
