<?xml version="1.0" encoding="UTF-8"?>
<svg xmlns="http://www.w3.org/2000/svg" xmlns:xlink="http://www.w3.org/1999/xlink" width="150pt" height="149.999998pt" viewBox="0 0 150 149.999998" version="1.2">
<defs>
<clipPath id="clip1">
  <path d="M 6 16 L 144 16 L 144 141.75 L 6 141.75 Z M 6 16 "/>
</clipPath>
</defs>
<g id="surface1">
<g clip-path="url(#clip1)" clip-rule="nonzero">
<path style=" stroke:none;fill-rule:nonzero;fill:rgb(95.689392%,67.059326%,72.938538%);fill-opacity:1;" d="M 136.996094 62.832031 C 138.472656 61.417969 139.796875 59.796875 140.890625 57.945312 C 147.335938 47.050781 141.921875 18.652344 138.625 16.714844 C 135.96875 15.144531 117.492188 20.722656 107.105469 28.671875 C 97.554688 22.957031 86.679688 19.582031 75.09375 19.582031 C 63.546875 19.582031 52.707031 22.9375 43.179688 28.617188 C 32.777344 20.699219 14.386719 15.148438 11.730469 16.714844 C 8.4375 18.652344 3.027344 47.054688 9.464844 57.945312 C 10.527344 59.746094 11.816406 61.320312 13.246094 62.714844 C 8.832031 72.457031 6.285156 83.109375 6.285156 93.949219 C 6.285156 132.082031 36.910156 141.75 75.09375 141.75 C 113.277344 141.75 143.902344 132.082031 143.902344 93.949219 C 143.902344 83.152344 141.378906 72.546875 136.996094 62.832031 Z M 136.996094 62.832031 "/>
</g>
<path style=" stroke:none;fill-rule:nonzero;fill:rgb(91.758728%,34.899902%,43.139648%);fill-opacity:1;" d="M 34.566406 34.71875 C 26.285156 29.882812 17.738281 26.777344 16.21875 27.675781 C 14.039062 28.960938 12.078125 46.757812 14.871094 59.230469 C 19.738281 49.75 26.492188 41.355469 34.566406 34.71875 Z M 135.3125 59.226562 C 138.113281 46.753906 136.148438 28.957031 133.96875 27.671875 C 132.449219 26.773438 123.898438 29.878906 115.617188 34.714844 C 123.699219 41.355469 130.449219 49.75 135.3125 59.226562 Z M 113.320312 100.230469 C 113.320312 117.363281 101.480469 136.023438 75.09375 136.023438 C 48.703125 136.023438 36.867188 117.363281 36.867188 100.230469 C 36.867188 83.101562 48.703125 78.757812 75.09375 78.757812 C 101.480469 78.757812 113.320312 83.101562 113.320312 100.230469 Z M 113.320312 100.230469 "/>
<path style=" stroke:none;fill-rule:nonzero;fill:rgb(39.99939%,12.939453%,7.449341%);fill-opacity:1;" d="M 63.625 105.863281 C 63.625 112.953125 62.324219 115.027344 57.890625 115.027344 C 53.457031 115.027344 52.15625 112.953125 52.15625 105.863281 C 52.15625 98.777344 53.457031 96.703125 57.890625 96.703125 C 62.324219 96.703125 63.625 98.773438 63.625 105.863281 Z M 98.03125 105.863281 C 98.03125 112.953125 96.730469 115.027344 92.296875 115.027344 C 87.863281 115.027344 86.5625 112.953125 86.5625 105.863281 C 86.5625 98.777344 87.863281 96.703125 92.296875 96.703125 C 96.730469 96.703125 98.03125 98.773438 98.03125 105.863281 Z M 98.03125 105.863281 "/>
<path style=" stroke:none;fill-rule:nonzero;fill:rgb(16.079712%,18.429565%,19.999695%);fill-opacity:1;" d="M 40.691406 76.847656 C 40.691406 77.347656 40.640625 77.847656 40.542969 78.335938 C 40.445312 78.828125 40.300781 79.308594 40.109375 79.769531 C 39.914062 80.234375 39.679688 80.671875 39.402344 81.089844 C 39.121094 81.507812 38.804688 81.890625 38.449219 82.246094 C 38.09375 82.601562 37.710938 82.917969 37.292969 83.195312 C 36.875 83.476562 36.433594 83.710938 35.96875 83.902344 C 35.507812 84.09375 35.027344 84.238281 34.535156 84.335938 C 34.042969 84.433594 33.546875 84.484375 33.042969 84.484375 C 32.542969 84.484375 32.046875 84.433594 31.554688 84.335938 C 31.058594 84.238281 30.582031 84.09375 30.117188 83.902344 C 29.65625 83.710938 29.214844 83.476562 28.796875 83.195312 C 28.378906 82.917969 27.992188 82.601562 27.636719 82.246094 C 27.285156 81.890625 26.964844 81.507812 26.6875 81.089844 C 26.410156 80.671875 26.171875 80.234375 25.980469 79.769531 C 25.789062 79.308594 25.644531 78.828125 25.546875 78.335938 C 25.449219 77.847656 25.398438 77.347656 25.398438 76.847656 C 25.398438 76.347656 25.449219 75.851562 25.546875 75.359375 C 25.644531 74.867188 25.789062 74.390625 25.980469 73.925781 C 26.171875 73.460938 26.410156 73.023438 26.6875 72.605469 C 26.964844 72.1875 27.285156 71.804688 27.636719 71.449219 C 27.992188 71.09375 28.378906 70.777344 28.796875 70.5 C 29.214844 70.21875 29.65625 69.984375 30.117188 69.792969 C 30.582031 69.601562 31.058594 69.457031 31.554688 69.359375 C 32.046875 69.261719 32.542969 69.210938 33.042969 69.210938 C 33.546875 69.210938 34.042969 69.261719 34.535156 69.359375 C 35.027344 69.457031 35.507812 69.601562 35.96875 69.792969 C 36.433594 69.984375 36.875 70.21875 37.292969 70.5 C 37.710938 70.777344 38.09375 71.09375 38.449219 71.449219 C 38.804688 71.804688 39.121094 72.1875 39.402344 72.605469 C 39.679688 73.023438 39.914062 73.460938 40.109375 73.925781 C 40.300781 74.390625 40.445312 74.867188 40.542969 75.359375 C 40.640625 75.851562 40.691406 76.347656 40.691406 76.847656 Z M 40.691406 76.847656 "/>
<path style=" stroke:none;fill-rule:nonzero;fill:rgb(16.079712%,18.429565%,19.999695%);fill-opacity:1;" d="M 124.789062 76.847656 C 124.789062 77.347656 124.738281 77.847656 124.640625 78.335938 C 124.542969 78.828125 124.398438 79.308594 124.207031 79.769531 C 124.015625 80.234375 123.777344 80.671875 123.5 81.089844 C 123.222656 81.507812 122.902344 81.890625 122.550781 82.246094 C 122.195312 82.601562 121.808594 82.917969 121.390625 83.195312 C 120.972656 83.476562 120.53125 83.710938 120.070312 83.902344 C 119.605469 84.09375 119.128906 84.238281 118.632812 84.335938 C 118.140625 84.433594 117.644531 84.484375 117.144531 84.484375 C 116.640625 84.484375 116.144531 84.433594 115.652344 84.335938 C 115.160156 84.238281 114.679688 84.09375 114.21875 83.902344 C 113.753906 83.710938 113.3125 83.476562 112.894531 83.195312 C 112.476562 82.917969 112.09375 82.601562 111.738281 82.246094 C 111.382812 81.890625 111.066406 81.507812 110.785156 81.089844 C 110.507812 80.671875 110.273438 80.234375 110.078125 79.769531 C 109.886719 79.308594 109.742188 78.828125 109.644531 78.335938 C 109.546875 77.847656 109.496094 77.347656 109.496094 76.847656 C 109.496094 76.347656 109.546875 75.851562 109.644531 75.359375 C 109.742188 74.867188 109.886719 74.390625 110.078125 73.925781 C 110.273438 73.460938 110.507812 73.023438 110.785156 72.605469 C 111.066406 72.1875 111.382812 71.804688 111.738281 71.449219 C 112.09375 71.09375 112.476562 70.777344 112.894531 70.5 C 113.3125 70.21875 113.753906 69.984375 114.21875 69.792969 C 114.679688 69.601562 115.160156 69.457031 115.652344 69.359375 C 116.144531 69.261719 116.640625 69.210938 117.144531 69.210938 C 117.644531 69.210938 118.140625 69.261719 118.632812 69.359375 C 119.128906 69.457031 119.605469 69.601562 120.070312 69.792969 C 120.53125 69.984375 120.972656 70.21875 121.390625 70.5 C 121.808594 70.777344 122.195312 71.09375 122.550781 71.449219 C 122.902344 71.804688 123.222656 72.1875 123.5 72.605469 C 123.777344 73.023438 124.015625 73.460938 124.207031 73.925781 C 124.398438 74.390625 124.542969 74.867188 124.640625 75.359375 C 124.738281 75.851562 124.789062 76.347656 124.789062 76.847656 Z M 124.789062 76.847656 "/>
</g>
</svg>
