<?xml version="1.0" encoding="UTF-8"?>
<svg xmlns="http://www.w3.org/2000/svg" xmlns:xlink="http://www.w3.org/1999/xlink" width="150pt" height="149.999998pt" viewBox="0 0 150 149.999998" version="1.2">
<defs>
<clipPath id="clip1">
  <path d="M 11.542969 81 L 23 81 L 23 97 L 11.542969 97 Z M 11.542969 81 "/>
</clipPath>
<clipPath id="clip2">
  <path d="M 49 50.09375 L 74 50.09375 L 74 54 L 49 54 Z M 49 50.09375 "/>
</clipPath>
<clipPath id="clip3">
  <path d="M 24 88 L 38 88 L 38 101.09375 L 24 101.09375 Z M 24 88 "/>
</clipPath>
<clipPath id="clip4">
  <path d="M 40 85 L 56 85 L 56 101.09375 L 40 101.09375 Z M 40 85 "/>
</clipPath>
<clipPath id="clip5">
  <path d="M 59 85 L 75 85 L 75 101.09375 L 59 101.09375 Z M 59 85 "/>
</clipPath>
<clipPath id="clip6">
  <path d="M 82 50.09375 L 138 50.09375 L 138 54 L 82 54 Z M 82 50.09375 "/>
</clipPath>
<clipPath id="clip7">
  <path d="M 102 85 L 119 85 L 119 101.09375 L 102 101.09375 Z M 102 85 "/>
</clipPath>
<clipPath id="clip8">
  <path d="M 84 85 L 100 85 L 100 101.09375 L 84 101.09375 Z M 84 85 "/>
</clipPath>
<clipPath id="clip9">
  <path d="M 120 85 L 137 85 L 137 101.09375 L 120 101.09375 Z M 120 85 "/>
</clipPath>
<clipPath id="clip10">
  <path d="M 136 83 L 140.449219 83 L 140.449219 88 L 136 88 Z M 136 83 "/>
</clipPath>
</defs>
<g id="surface1">
<path style=" stroke:none;fill-rule:nonzero;fill:rgb(76.858521%,76.469421%,76.469421%);fill-opacity:1;" d="M 42.203125 61.371094 L 39.617188 61.371094 L 39.617188 65.34375 L 42.203125 65.34375 L 42.203125 61.371094 "/>
<path style=" stroke:none;fill-rule:nonzero;fill:rgb(82.749939%,82.348633%,82.348633%);fill-opacity:1;" d="M 34.699219 65.34375 C 34.605469 64.472656 34.140625 63.8125 33.578125 63.8125 L 28.621094 63.8125 C 28.0625 63.8125 27.597656 64.472656 27.5 65.34375 L 34.699219 65.34375 "/>
<g clip-path="url(#clip1)" clip-rule="nonzero">
<path style=" stroke:none;fill-rule:nonzero;fill:rgb(64.309692%,16.859436%,15.689087%);fill-opacity:1;" d="M 11.753906 96.644531 L 22.371094 96.644531 L 22.371094 81.863281 L 20.652344 81.863281 L 11.753906 96.644531 "/>
</g>
<path style=" stroke:none;fill-rule:nonzero;fill:rgb(48.239136%,12.159729%,10.978699%);fill-opacity:1;" d="M 20.617188 74.097656 C 19.964844 74.097656 19.433594 73.625 19.433594 73.042969 C 19.433594 72.460938 19.964844 71.988281 20.617188 71.988281 L 20.617188 74.097656 "/>
<path style=" stroke:none;fill-rule:nonzero;fill:rgb(64.309692%,16.859436%,15.689087%);fill-opacity:1;" d="M 24.363281 81.863281 C 22.164062 81.863281 20.378906 78.058594 20.378906 73.359375 C 20.378906 68.664062 22.164062 64.855469 24.363281 64.855469 L 24.363281 81.863281 "/>
<path style=" stroke:none;fill-rule:nonzero;fill:rgb(60.778809%,15.689087%,14.898682%);fill-opacity:1;" d="M 20.652344 76.464844 C 21.234375 79.625 22.675781 81.863281 24.363281 81.863281 L 24.363281 76.464844 L 20.652344 76.464844 "/>
<path style=" stroke:none;fill-rule:nonzero;fill:rgb(48.239136%,12.159729%,10.978699%);fill-opacity:1;" d="M 25.53125 81.957031 C 25.53125 82.378906 25.191406 82.722656 24.777344 82.722656 C 24.355469 82.722656 24.019531 82.378906 24.019531 81.957031 L 24.019531 64.878906 C 24.019531 64.453125 24.355469 64.109375 24.777344 64.109375 C 25.191406 64.109375 25.53125 64.453125 25.53125 64.878906 L 25.53125 81.957031 "/>
<path style=" stroke:none;fill-rule:nonzero;fill:rgb(64.309692%,16.859436%,15.689087%);fill-opacity:1;" d="M 25.53125 81.863281 L 43.945312 81.863281 L 43.945312 64.855469 L 25.53125 64.855469 L 25.53125 81.863281 "/>
<path style=" stroke:none;fill-rule:nonzero;fill:rgb(48.239136%,12.159729%,10.978699%);fill-opacity:1;" d="M 25.53125 81.863281 L 43.945312 81.863281 L 43.945312 74.894531 L 25.53125 74.894531 L 25.53125 81.863281 "/>
<path style=" stroke:none;fill-rule:nonzero;fill:rgb(75.689697%,19.999695%,19.219971%);fill-opacity:1;" d="M 43.945312 81.863281 L 53.152344 81.863281 L 53.152344 63.183594 L 43.945312 63.183594 L 43.945312 81.863281 "/>
<path style=" stroke:none;fill-rule:nonzero;fill:rgb(25.878906%,63.919067%,67.059326%);fill-opacity:1;" d="M 72.117188 83.398438 L 50.679688 83.398438 L 50.679688 52.730469 L 72.117188 52.730469 L 72.117188 83.398438 "/>
<path style=" stroke:none;fill-rule:nonzero;fill:rgb(100%,100%,100%);fill-opacity:1;" d="M 68.957031 66.53125 L 53.976562 66.53125 L 53.976562 56.214844 L 68.957031 56.214844 L 68.957031 66.53125 "/>
<g clip-path="url(#clip2)" clip-rule="nonzero">
<path style=" stroke:none;fill-rule:nonzero;fill:rgb(9.408569%,22.749329%,34.899902%);fill-opacity:1;" d="M 73.769531 51.890625 C 73.769531 52.890625 72.96875 53.703125 71.980469 53.703125 L 50.816406 53.703125 C 49.832031 53.703125 49.03125 52.890625 49.03125 51.890625 C 49.03125 50.890625 49.832031 50.078125 50.816406 50.078125 L 71.980469 50.078125 C 72.96875 50.078125 73.769531 50.890625 73.769531 51.890625 "/>
</g>
<path style=" stroke:none;fill-rule:nonzero;fill:rgb(48.239136%,47.44873%,47.44873%);fill-opacity:1;" d="M 22.371094 84.304688 L 74.359375 84.304688 L 74.359375 81.863281 L 22.371094 81.863281 L 22.371094 84.304688 "/>
<path style=" stroke:none;fill-rule:nonzero;fill:rgb(41.178894%,40.388489%,40.388489%);fill-opacity:1;" d="M 22.371094 91.34375 L 73.21875 91.34375 L 73.21875 84.304688 L 22.371094 84.304688 L 22.371094 91.34375 "/>
<path style=" stroke:none;fill-rule:nonzero;fill:rgb(48.239136%,12.159729%,10.978699%);fill-opacity:1;" d="M 28.183594 73.417969 C 28.183594 73.792969 27.882812 74.097656 27.511719 74.097656 C 27.136719 74.097656 26.835938 73.792969 26.835938 73.417969 C 26.835938 73.039062 27.136719 72.734375 27.511719 72.734375 C 27.882812 72.734375 28.183594 73.039062 28.183594 73.417969 "/>
<path style=" stroke:none;fill-rule:nonzero;fill:rgb(48.239136%,12.159729%,10.978699%);fill-opacity:1;" d="M 31.632812 73.417969 C 31.632812 73.792969 31.332031 74.097656 30.960938 74.097656 C 30.585938 74.097656 30.285156 73.792969 30.285156 73.417969 C 30.285156 73.039062 30.585938 72.734375 30.960938 72.734375 C 31.332031 72.734375 31.632812 73.039062 31.632812 73.417969 "/>
<path style=" stroke:none;fill-rule:nonzero;fill:rgb(48.239136%,12.159729%,10.978699%);fill-opacity:1;" d="M 35.082031 73.417969 C 35.082031 73.792969 34.78125 74.097656 34.410156 74.097656 C 34.035156 74.097656 33.734375 73.792969 33.734375 73.417969 C 33.734375 73.039062 34.035156 72.734375 34.410156 72.734375 C 34.78125 72.734375 35.082031 73.039062 35.082031 73.417969 "/>
<path style=" stroke:none;fill-rule:nonzero;fill:rgb(48.239136%,12.159729%,10.978699%);fill-opacity:1;" d="M 38.53125 73.417969 C 38.53125 73.792969 38.230469 74.097656 37.859375 74.097656 C 37.488281 74.097656 37.183594 73.792969 37.183594 73.417969 C 37.183594 73.039062 37.488281 72.734375 37.859375 72.734375 C 38.230469 72.734375 38.53125 73.039062 38.53125 73.417969 "/>
<path style=" stroke:none;fill-rule:nonzero;fill:rgb(48.239136%,12.159729%,10.978699%);fill-opacity:1;" d="M 41.980469 73.417969 C 41.980469 73.792969 41.679688 74.097656 41.308594 74.097656 C 40.9375 74.097656 40.636719 73.792969 40.636719 73.417969 C 40.636719 73.039062 40.9375 72.734375 41.308594 72.734375 C 41.679688 72.734375 41.980469 73.039062 41.980469 73.417969 "/>
<path style=" stroke:none;fill-rule:nonzero;fill:rgb(99.21875%,86.669922%,6.269836%);fill-opacity:1;" d="M 21.5 88.46875 C 20.265625 88.46875 19.261719 87.535156 19.261719 86.386719 C 19.261719 85.238281 20.265625 84.304688 21.5 84.304688 L 21.5 88.46875 "/>
<path style=" stroke:none;fill-rule:nonzero;fill:rgb(56.858826%,56.079102%,56.079102%);fill-opacity:1;" d="M 21.324219 88.46875 C 21.324219 88.46875 24.222656 88.46875 25.996094 88.46875 C 28.210938 88.46875 28.140625 84.304688 25.996094 84.304688 C 23.851562 84.304688 21.324219 84.304688 21.324219 84.304688 L 21.324219 88.46875 "/>
<path style=" stroke:none;fill-rule:nonzero;fill:rgb(52.549744%,51.759338%,51.759338%);fill-opacity:1;" d="M 26.835938 84.570312 C 26.746094 85.398438 26.136719 86.210938 25.242188 86.605469 C 24.40625 86.976562 23.453125 86.957031 22.542969 86.789062 C 22.160156 86.71875 21.714844 86.617188 21.324219 86.449219 L 21.324219 88.46875 C 21.324219 88.46875 24.222656 88.46875 25.996094 88.46875 C 27.871094 88.46875 28.109375 85.484375 26.835938 84.570312 "/>
<path style=" stroke:none;fill-rule:nonzero;fill:rgb(47.059631%,11.759949%,10.5896%);fill-opacity:1;" d="M 21.324219 89.671875 L 21.324219 96.644531 L 19.871094 96.644531 Z M 21.324219 89.671875 "/>
<path style=" stroke:none;fill-rule:nonzero;fill:rgb(47.059631%,11.759949%,10.5896%);fill-opacity:1;" d="M 20.027344 89.671875 L 18.515625 96.644531 L 17.0625 96.644531 Z M 20.027344 89.671875 "/>
<path style=" stroke:none;fill-rule:nonzero;fill:rgb(47.059631%,11.759949%,10.5896%);fill-opacity:1;" d="M 18.109375 89.671875 L 15.148438 96.644531 L 13.695312 96.644531 Z M 18.109375 89.671875 "/>
<path style=" stroke:none;fill-rule:nonzero;fill:rgb(50.979614%,49.798584%,50.19989%);fill-opacity:1;" d="M 73.769531 94.8125 L 22.371094 94.8125 L 22.371094 91.34375 L 73.769531 91.34375 L 73.769531 94.8125 "/>
<path style=" stroke:none;fill-rule:nonzero;fill:rgb(64.309692%,16.859436%,15.689087%);fill-opacity:1;" d="M 31.4375 99.375 C 28.953125 99.375 26.941406 97.332031 26.941406 94.8125 C 26.941406 92.296875 28.953125 90.253906 31.4375 90.253906 C 33.917969 90.253906 35.933594 92.296875 35.933594 94.8125 C 35.933594 97.332031 33.917969 99.375 31.4375 99.375 Z M 31.4375 89.027344 C 28.285156 89.027344 25.734375 91.617188 25.734375 94.8125 C 25.734375 98.007812 28.285156 100.597656 31.4375 100.597656 C 34.585938 100.597656 37.140625 98.007812 37.140625 94.8125 C 37.140625 91.617188 34.585938 89.027344 31.4375 89.027344 "/>
<g clip-path="url(#clip3)" clip-rule="nonzero">
<path style=" stroke:none;fill-rule:nonzero;fill:rgb(16.079712%,14.118958%,17.248535%);fill-opacity:1;" d="M 31.4375 100.007812 C 28.609375 100.007812 26.316406 97.683594 26.316406 94.8125 C 26.316406 91.945312 28.609375 89.621094 31.4375 89.621094 C 34.265625 89.621094 36.554688 91.945312 36.554688 94.8125 C 36.554688 97.683594 34.265625 100.007812 31.4375 100.007812 Z M 31.4375 88.226562 C 27.851562 88.226562 24.941406 91.175781 24.941406 94.8125 C 24.941406 98.453125 27.851562 101.398438 31.4375 101.398438 C 35.023438 101.398438 37.929688 98.453125 37.929688 94.8125 C 37.929688 91.175781 35.023438 88.226562 31.4375 88.226562 "/>
</g>
<path style=" stroke:none;fill-rule:nonzero;fill:rgb(64.309692%,16.859436%,15.689087%);fill-opacity:1;" d="M 31.910156 99.691406 L 30.960938 99.691406 L 30.960938 89.953125 L 31.910156 89.953125 L 31.910156 99.691406 "/>
<path style=" stroke:none;fill-rule:nonzero;fill:rgb(64.309692%,16.859436%,15.689087%);fill-opacity:1;" d="M 26.636719 95.300781 L 26.636719 94.339844 L 36.238281 94.339844 L 36.238281 95.300781 L 26.636719 95.300781 "/>
<path style=" stroke:none;fill-rule:nonzero;fill:rgb(64.309692%,16.859436%,15.689087%);fill-opacity:1;" d="M 28.375 98.605469 L 27.707031 97.925781 L 34.496094 91.039062 L 35.164062 91.71875 L 28.375 98.605469 "/>
<path style=" stroke:none;fill-rule:nonzero;fill:rgb(64.309692%,16.859436%,15.689087%);fill-opacity:1;" d="M 27.707031 91.71875 L 28.375 91.039062 L 35.164062 97.925781 L 34.496094 98.605469 L 27.707031 91.71875 "/>
<path style=" stroke:none;fill-rule:nonzero;fill:rgb(16.079712%,14.118958%,17.248535%);fill-opacity:1;" d="M 32.414062 94.8125 C 32.414062 95.363281 31.976562 95.808594 31.4375 95.808594 C 30.894531 95.808594 30.457031 95.363281 30.457031 94.8125 C 30.457031 94.265625 30.894531 93.820312 31.4375 93.820312 C 31.976562 93.820312 32.414062 94.265625 32.414062 94.8125 "/>
<path style=" stroke:none;fill-rule:nonzero;fill:rgb(10.198975%,8.628845%,10.198975%);fill-opacity:1;" d="M 31.667969 94.8125 C 31.667969 94.945312 31.566406 95.050781 31.4375 95.050781 C 31.308594 95.050781 31.203125 94.945312 31.203125 94.8125 C 31.203125 94.683594 31.308594 94.578125 31.4375 94.578125 C 31.566406 94.578125 31.667969 94.683594 31.667969 94.8125 "/>
<path style=" stroke:none;fill-rule:nonzero;fill:rgb(64.309692%,16.859436%,15.689087%);fill-opacity:1;" d="M 47.976562 98.964844 C 44.988281 98.964844 42.570312 96.507812 42.570312 93.480469 C 42.570312 90.453125 44.988281 87.996094 47.976562 87.996094 C 50.960938 87.996094 53.378906 90.453125 53.378906 93.480469 C 53.378906 96.507812 50.960938 98.964844 47.976562 98.964844 Z M 47.976562 86.523438 C 44.1875 86.523438 41.117188 89.640625 41.117188 93.480469 C 41.117188 97.320312 44.1875 100.4375 47.976562 100.4375 C 51.761719 100.4375 54.832031 97.320312 54.832031 93.480469 C 54.832031 89.640625 51.761719 86.523438 47.976562 86.523438 "/>
<g clip-path="url(#clip4)" clip-rule="nonzero">
<path style=" stroke:none;fill-rule:nonzero;fill:rgb(16.079712%,14.118958%,17.248535%);fill-opacity:1;" d="M 47.976562 99.722656 C 44.574219 99.722656 41.820312 96.929688 41.820312 93.480469 C 41.820312 90.03125 44.574219 87.234375 47.976562 87.234375 C 51.375 87.234375 54.128906 90.03125 54.128906 93.480469 C 54.128906 96.929688 51.375 99.722656 47.976562 99.722656 Z M 47.976562 85.558594 C 43.664062 85.558594 40.167969 89.105469 40.167969 93.480469 C 40.167969 97.855469 43.664062 101.398438 47.976562 101.398438 C 52.285156 101.398438 55.78125 97.855469 55.78125 93.480469 C 55.78125 89.105469 52.285156 85.558594 47.976562 85.558594 "/>
</g>
<path style=" stroke:none;fill-rule:nonzero;fill:rgb(64.309692%,16.859436%,15.689087%);fill-opacity:1;" d="M 48.542969 99.34375 L 47.40625 99.34375 L 47.40625 87.636719 L 48.542969 87.636719 L 48.542969 99.34375 "/>
<path style=" stroke:none;fill-rule:nonzero;fill:rgb(64.309692%,16.859436%,15.689087%);fill-opacity:1;" d="M 42.203125 94.066406 L 42.203125 92.914062 L 53.746094 92.914062 L 53.746094 94.066406 L 42.203125 94.066406 "/>
<path style=" stroke:none;fill-rule:nonzero;fill:rgb(64.309692%,16.859436%,15.689087%);fill-opacity:1;" d="M 44.296875 98.039062 L 43.492188 97.222656 L 51.652344 88.941406 L 52.457031 89.757812 L 44.296875 98.039062 "/>
<path style=" stroke:none;fill-rule:nonzero;fill:rgb(64.309692%,16.859436%,15.689087%);fill-opacity:1;" d="M 43.492188 89.757812 L 44.296875 88.941406 L 52.457031 97.222656 L 51.652344 98.039062 L 43.492188 89.757812 "/>
<path style=" stroke:none;fill-rule:nonzero;fill:rgb(16.079712%,14.118958%,17.248535%);fill-opacity:1;" d="M 49.152344 93.480469 C 49.152344 94.140625 48.625 94.675781 47.976562 94.675781 C 47.324219 94.675781 46.796875 94.140625 46.796875 93.480469 C 46.796875 92.820312 47.324219 92.285156 47.976562 92.285156 C 48.625 92.285156 49.152344 92.820312 49.152344 93.480469 "/>
<path style=" stroke:none;fill-rule:nonzero;fill:rgb(10.198975%,8.628845%,10.198975%);fill-opacity:1;" d="M 48.253906 93.480469 C 48.253906 93.636719 48.128906 93.765625 47.976562 93.765625 C 47.820312 93.765625 47.691406 93.636719 47.691406 93.480469 C 47.691406 93.324219 47.820312 93.195312 47.976562 93.195312 C 48.128906 93.195312 48.253906 93.324219 48.253906 93.480469 "/>
<path style=" stroke:none;fill-rule:nonzero;fill:rgb(64.309692%,16.859436%,15.689087%);fill-opacity:1;" d="M 67.144531 98.964844 C 64.160156 98.964844 61.738281 96.507812 61.738281 93.480469 C 61.738281 90.453125 64.160156 87.996094 67.144531 87.996094 C 70.128906 87.996094 72.550781 90.453125 72.550781 93.480469 C 72.550781 96.507812 70.128906 98.964844 67.144531 98.964844 Z M 67.144531 86.523438 C 63.359375 86.523438 60.289062 89.640625 60.289062 93.480469 C 60.289062 97.320312 63.359375 100.4375 67.144531 100.4375 C 70.933594 100.4375 74.003906 97.320312 74.003906 93.480469 C 74.003906 89.640625 70.933594 86.523438 67.144531 86.523438 "/>
<g clip-path="url(#clip5)" clip-rule="nonzero">
<path style=" stroke:none;fill-rule:nonzero;fill:rgb(16.079712%,14.118958%,17.248535%);fill-opacity:1;" d="M 67.144531 99.722656 C 63.746094 99.722656 60.992188 96.929688 60.992188 93.480469 C 60.992188 90.03125 63.746094 87.234375 67.144531 87.234375 C 70.542969 87.234375 73.300781 90.03125 73.300781 93.480469 C 73.300781 96.929688 70.542969 99.722656 67.144531 99.722656 Z M 67.144531 85.558594 C 62.832031 85.558594 59.335938 89.105469 59.335938 93.480469 C 59.335938 97.855469 62.832031 101.398438 67.144531 101.398438 C 71.457031 101.398438 74.953125 97.855469 74.953125 93.480469 C 74.953125 89.105469 71.457031 85.558594 67.144531 85.558594 "/>
</g>
<path style=" stroke:none;fill-rule:nonzero;fill:rgb(64.309692%,16.859436%,15.689087%);fill-opacity:1;" d="M 67.714844 99.34375 L 66.578125 99.34375 L 66.578125 87.636719 L 67.714844 87.636719 L 67.714844 99.34375 "/>
<path style=" stroke:none;fill-rule:nonzero;fill:rgb(64.309692%,16.859436%,15.689087%);fill-opacity:1;" d="M 61.375 94.066406 L 61.375 92.914062 L 72.917969 92.914062 L 72.917969 94.066406 L 61.375 94.066406 "/>
<path style=" stroke:none;fill-rule:nonzero;fill:rgb(64.309692%,16.859436%,15.689087%);fill-opacity:1;" d="M 63.46875 98.039062 L 62.660156 97.222656 L 70.824219 88.941406 L 71.628906 89.757812 L 63.46875 98.039062 "/>
<path style=" stroke:none;fill-rule:nonzero;fill:rgb(64.309692%,16.859436%,15.689087%);fill-opacity:1;" d="M 62.660156 89.757812 L 63.46875 88.941406 L 71.628906 97.222656 L 70.824219 98.039062 L 62.660156 89.757812 "/>
<path style=" stroke:none;fill-rule:nonzero;fill:rgb(16.079712%,14.118958%,17.248535%);fill-opacity:1;" d="M 68.324219 93.480469 C 68.324219 94.140625 67.796875 94.675781 67.144531 94.675781 C 66.496094 94.675781 65.96875 94.140625 65.96875 93.480469 C 65.96875 92.820312 66.496094 92.285156 67.144531 92.285156 C 67.796875 92.285156 68.324219 92.820312 68.324219 93.480469 "/>
<path style=" stroke:none;fill-rule:nonzero;fill:rgb(10.198975%,8.628845%,10.198975%);fill-opacity:1;" d="M 67.425781 93.480469 C 67.425781 93.636719 67.300781 93.765625 67.144531 93.765625 C 66.988281 93.765625 66.863281 93.636719 66.863281 93.480469 C 66.863281 93.324219 66.988281 93.195312 67.144531 93.195312 C 67.300781 93.195312 67.425781 93.324219 67.425781 93.480469 "/>
<path style=" stroke:none;fill-rule:nonzero;fill:rgb(49.01886%,12.159729%,11.369324%);fill-opacity:1;" d="M 67.582031 98.289062 C 67.433594 98.65625 67.015625 98.832031 66.652344 98.679688 L 47.84375 89.699219 C 47.480469 89.546875 47.304688 89.125 47.457031 88.753906 C 47.609375 88.386719 48.027344 88.210938 48.390625 88.363281 L 67.199219 97.34375 C 67.5625 97.496094 67.734375 97.917969 67.582031 98.289062 "/>
<path style=" stroke:none;fill-rule:nonzero;fill:rgb(68.238831%,67.449951%,67.449951%);fill-opacity:1;" d="M 28.6875 60.464844 L 33.515625 60.464844 L 33.515625 63.8125 L 28.6875 63.8125 L 28.6875 60.464844 "/>
<path style=" stroke:none;fill-rule:nonzero;fill:rgb(68.238831%,67.449951%,67.449951%);fill-opacity:1;" d="M 26.152344 56.421875 L 35.5625 56.421875 L 33.515625 59.769531 L 28.6875 59.769531 L 26.152344 56.421875 "/>
<path style=" stroke:none;fill-rule:nonzero;fill:rgb(68.238831%,67.449951%,67.449951%);fill-opacity:1;" d="M 35.851562 55.375 L 25.75 55.375 L 28.140625 52.03125 L 34.082031 52.03125 L 35.851562 55.375 "/>
<path style=" stroke:none;fill-rule:nonzero;fill:rgb(82.749939%,82.348633%,82.348633%);fill-opacity:1;" d="M 34.136719 60.324219 C 34.136719 60.632812 33.890625 60.882812 33.589844 60.882812 L 28.613281 60.882812 C 28.308594 60.882812 28.0625 60.632812 28.0625 60.324219 C 28.0625 60.019531 28.308594 59.769531 28.613281 59.769531 L 33.589844 59.769531 C 33.890625 59.769531 34.136719 60.019531 34.136719 60.324219 "/>
<path style=" stroke:none;fill-rule:nonzero;fill:rgb(82.749939%,82.348633%,82.348633%);fill-opacity:1;" d="M 36.238281 55.863281 C 36.238281 56.171875 36.015625 56.421875 35.742188 56.421875 L 26.023438 56.421875 C 25.753906 56.421875 25.53125 56.171875 25.53125 55.863281 C 25.53125 55.558594 25.753906 55.308594 26.023438 55.308594 L 35.742188 55.308594 C 36.015625 55.308594 36.238281 55.558594 36.238281 55.863281 "/>
<path style=" stroke:none;fill-rule:nonzero;fill:rgb(68.238831%,67.449951%,67.449951%);fill-opacity:1;" d="M 38.199219 61.78125 C 38.199219 60.789062 39.414062 59.988281 40.910156 59.988281 C 42.40625 59.988281 43.621094 60.789062 43.621094 61.78125 L 38.199219 61.78125 "/>
<path style=" stroke:none;fill-rule:nonzero;fill:rgb(41.178894%,40.388489%,40.388489%);fill-opacity:1;" d="M 75.792969 86.386719 L 72.492188 86.386719 L 72.492188 84.914062 L 75.792969 84.914062 L 75.792969 86.386719 "/>
<path style=" stroke:none;fill-rule:nonzero;fill:rgb(41.178894%,40.388489%,40.388489%);fill-opacity:1;" d="M 77.199219 86.867188 C 76.574219 86.867188 76.066406 86.351562 76.066406 85.71875 C 76.066406 85.082031 76.574219 84.570312 77.199219 84.570312 C 77.824219 84.570312 78.332031 85.082031 78.332031 85.71875 C 78.332031 86.351562 77.824219 86.867188 77.199219 86.867188 Z M 77.199219 83.800781 C 76.15625 83.800781 75.308594 84.660156 75.308594 85.71875 C 75.308594 86.777344 76.15625 87.636719 77.199219 87.636719 C 78.242188 87.636719 79.089844 86.777344 79.089844 85.71875 C 79.089844 84.660156 78.242188 83.800781 77.199219 83.800781 "/>
<path style=" stroke:none;fill-rule:nonzero;fill:rgb(75.289917%,14.509583%,23.139954%);fill-opacity:1;" d="M 135.226562 83.398438 L 84.167969 83.398438 L 84.167969 52.730469 L 135.226562 52.730469 L 135.226562 83.398438 "/>
<path style=" stroke:none;fill-rule:nonzero;fill:rgb(59.609985%,10.978699%,17.649841%);fill-opacity:1;" d="M 135.226562 83.398438 L 84.167969 83.398438 L 84.167969 69.003906 L 135.226562 69.003906 L 135.226562 83.398438 "/>
<path style=" stroke:none;fill-rule:nonzero;fill:rgb(100%,100%,100%);fill-opacity:1;" d="M 96.535156 67.800781 L 87.75 67.800781 C 87.75 67.800781 87.75 61.773438 87.75 59.386719 C 87.75 57 89.613281 54.835938 92.257812 54.835938 C 94.90625 54.835938 96.535156 56.859375 96.535156 59.386719 C 96.535156 61.914062 96.535156 67.800781 96.535156 67.800781 "/>
<path style=" stroke:none;fill-rule:nonzero;fill:rgb(100%,100%,100%);fill-opacity:1;" d="M 108.351562 67.800781 L 99.566406 67.800781 C 99.566406 67.800781 99.566406 61.773438 99.566406 59.386719 C 99.566406 57 101.433594 54.835938 104.078125 54.835938 C 106.722656 54.835938 108.351562 56.859375 108.351562 59.386719 C 108.351562 61.914062 108.351562 67.800781 108.351562 67.800781 "/>
<path style=" stroke:none;fill-rule:nonzero;fill:rgb(100%,100%,100%);fill-opacity:1;" d="M 120.171875 67.800781 L 111.386719 67.800781 C 111.386719 67.800781 111.386719 61.773438 111.386719 59.386719 C 111.386719 57 113.25 54.835938 115.898438 54.835938 C 118.542969 54.835938 120.171875 56.859375 120.171875 59.386719 C 120.171875 61.914062 120.171875 67.800781 120.171875 67.800781 "/>
<path style=" stroke:none;fill-rule:nonzero;fill:rgb(100%,100%,100%);fill-opacity:1;" d="M 131.992188 67.800781 L 123.203125 67.800781 C 123.203125 67.800781 123.203125 61.773438 123.203125 59.386719 C 123.203125 57 125.070312 54.835938 127.714844 54.835938 C 130.363281 54.835938 131.992188 56.859375 131.992188 59.386719 C 131.992188 61.914062 131.992188 67.800781 131.992188 67.800781 "/>
<g clip-path="url(#clip6)" clip-rule="nonzero">
<path style=" stroke:none;fill-rule:nonzero;fill:rgb(9.408569%,22.749329%,34.899902%);fill-opacity:1;" d="M 137.316406 51.890625 C 137.316406 52.890625 136.515625 53.703125 135.527344 53.703125 L 84.378906 53.703125 C 83.390625 53.703125 82.589844 52.890625 82.589844 51.890625 C 82.589844 50.890625 83.390625 50.078125 84.378906 50.078125 L 135.527344 50.078125 C 136.515625 50.078125 137.316406 50.890625 137.316406 51.890625 "/>
</g>
<path style=" stroke:none;fill-rule:nonzero;fill:rgb(48.239136%,47.44873%,47.44873%);fill-opacity:1;" d="M 83.484375 84.304688 L 135.472656 84.304688 L 135.472656 81.863281 L 83.484375 81.863281 L 83.484375 84.304688 "/>
<path style=" stroke:none;fill-rule:nonzero;fill:rgb(41.178894%,40.388489%,40.388489%);fill-opacity:1;" d="M 83.484375 91.34375 L 134.332031 91.34375 L 134.332031 84.304688 L 83.484375 84.304688 L 83.484375 91.34375 "/>
<path style=" stroke:none;fill-rule:nonzero;fill:rgb(50.979614%,49.798584%,50.19989%);fill-opacity:1;" d="M 134.878906 94.8125 L 83.484375 94.8125 L 83.484375 91.34375 L 134.878906 91.34375 L 134.878906 94.8125 "/>
<path style=" stroke:none;fill-rule:nonzero;fill:rgb(64.309692%,16.859436%,15.689087%);fill-opacity:1;" d="M 110.265625 98.964844 C 107.28125 98.964844 104.859375 96.507812 104.859375 93.480469 C 104.859375 90.453125 107.28125 87.996094 110.265625 87.996094 C 113.25 87.996094 115.667969 90.453125 115.667969 93.480469 C 115.667969 96.507812 113.25 98.964844 110.265625 98.964844 Z M 110.265625 86.523438 C 106.480469 86.523438 103.40625 89.640625 103.40625 93.480469 C 103.40625 97.320312 106.480469 100.4375 110.265625 100.4375 C 114.050781 100.4375 117.121094 97.320312 117.121094 93.480469 C 117.121094 89.640625 114.050781 86.523438 110.265625 86.523438 "/>
<g clip-path="url(#clip7)" clip-rule="nonzero">
<path style=" stroke:none;fill-rule:nonzero;fill:rgb(16.079712%,14.118958%,17.248535%);fill-opacity:1;" d="M 110.265625 99.722656 C 106.863281 99.722656 104.109375 96.929688 104.109375 93.480469 C 104.109375 90.03125 106.863281 87.234375 110.265625 87.234375 C 113.664062 87.234375 116.417969 90.03125 116.417969 93.480469 C 116.417969 96.929688 113.664062 99.722656 110.265625 99.722656 Z M 110.265625 85.558594 C 105.953125 85.558594 102.457031 89.105469 102.457031 93.480469 C 102.457031 97.855469 105.953125 101.398438 110.265625 101.398438 C 114.578125 101.398438 118.074219 97.855469 118.074219 93.480469 C 118.074219 89.105469 114.578125 85.558594 110.265625 85.558594 "/>
</g>
<path style=" stroke:none;fill-rule:nonzero;fill:rgb(64.309692%,16.859436%,15.689087%);fill-opacity:1;" d="M 110.832031 99.34375 L 109.695312 99.34375 L 109.695312 87.636719 L 110.832031 87.636719 L 110.832031 99.34375 "/>
<path style=" stroke:none;fill-rule:nonzero;fill:rgb(64.309692%,16.859436%,15.689087%);fill-opacity:1;" d="M 104.492188 94.066406 L 104.492188 92.914062 L 116.035156 92.914062 L 116.035156 94.066406 L 104.492188 94.066406 "/>
<path style=" stroke:none;fill-rule:nonzero;fill:rgb(64.309692%,16.859436%,15.689087%);fill-opacity:1;" d="M 106.585938 98.039062 L 105.78125 97.222656 L 113.941406 88.941406 L 114.75 89.757812 L 106.585938 98.039062 "/>
<path style=" stroke:none;fill-rule:nonzero;fill:rgb(64.309692%,16.859436%,15.689087%);fill-opacity:1;" d="M 105.78125 89.757812 L 106.585938 88.941406 L 114.75 97.222656 L 113.941406 98.039062 L 105.78125 89.757812 "/>
<path style=" stroke:none;fill-rule:nonzero;fill:rgb(16.079712%,14.118958%,17.248535%);fill-opacity:1;" d="M 111.441406 93.480469 C 111.441406 94.140625 110.914062 94.675781 110.265625 94.675781 C 109.613281 94.675781 109.085938 94.140625 109.085938 93.480469 C 109.085938 92.820312 109.613281 92.285156 110.265625 92.285156 C 110.914062 92.285156 111.441406 92.820312 111.441406 93.480469 "/>
<path style=" stroke:none;fill-rule:nonzero;fill:rgb(10.198975%,8.628845%,10.198975%);fill-opacity:1;" d="M 110.546875 93.480469 C 110.546875 93.636719 110.421875 93.765625 110.265625 93.765625 C 110.109375 93.765625 109.984375 93.636719 109.984375 93.480469 C 109.984375 93.324219 110.109375 93.195312 110.265625 93.195312 C 110.421875 93.195312 110.546875 93.324219 110.546875 93.480469 "/>
<path style=" stroke:none;fill-rule:nonzero;fill:rgb(64.309692%,16.859436%,15.689087%);fill-opacity:1;" d="M 92.140625 98.964844 C 89.15625 98.964844 86.734375 96.507812 86.734375 93.480469 C 86.734375 90.453125 89.15625 87.996094 92.140625 87.996094 C 95.128906 87.996094 97.546875 90.453125 97.546875 93.480469 C 97.546875 96.507812 95.128906 98.964844 92.140625 98.964844 Z M 92.140625 86.523438 C 88.355469 86.523438 85.285156 89.640625 85.285156 93.480469 C 85.285156 97.320312 88.355469 100.4375 92.140625 100.4375 C 95.929688 100.4375 99 97.320312 99 93.480469 C 99 89.640625 95.929688 86.523438 92.140625 86.523438 "/>
<g clip-path="url(#clip8)" clip-rule="nonzero">
<path style=" stroke:none;fill-rule:nonzero;fill:rgb(16.079712%,14.118958%,17.248535%);fill-opacity:1;" d="M 92.140625 99.722656 C 88.742188 99.722656 85.988281 96.929688 85.988281 93.480469 C 85.988281 90.03125 88.742188 87.234375 92.140625 87.234375 C 95.539062 87.234375 98.296875 90.03125 98.296875 93.480469 C 98.296875 96.929688 95.539062 99.722656 92.140625 99.722656 Z M 92.140625 85.558594 C 87.828125 85.558594 84.335938 89.105469 84.335938 93.480469 C 84.335938 97.855469 87.828125 101.398438 92.140625 101.398438 C 96.453125 101.398438 99.949219 97.855469 99.949219 93.480469 C 99.949219 89.105469 96.453125 85.558594 92.140625 85.558594 "/>
</g>
<path style=" stroke:none;fill-rule:nonzero;fill:rgb(64.309692%,16.859436%,15.689087%);fill-opacity:1;" d="M 92.710938 99.34375 L 91.574219 99.34375 L 91.574219 87.636719 L 92.710938 87.636719 L 92.710938 99.34375 "/>
<path style=" stroke:none;fill-rule:nonzero;fill:rgb(64.309692%,16.859436%,15.689087%);fill-opacity:1;" d="M 86.371094 94.066406 L 86.371094 92.914062 L 97.914062 92.914062 L 97.914062 94.066406 L 86.371094 94.066406 "/>
<path style=" stroke:none;fill-rule:nonzero;fill:rgb(64.309692%,16.859436%,15.689087%);fill-opacity:1;" d="M 88.464844 98.039062 L 87.65625 97.222656 L 95.820312 88.941406 L 96.625 89.757812 L 88.464844 98.039062 "/>
<path style=" stroke:none;fill-rule:nonzero;fill:rgb(64.309692%,16.859436%,15.689087%);fill-opacity:1;" d="M 87.65625 89.757812 L 88.464844 88.941406 L 96.625 97.222656 L 95.820312 98.039062 L 87.65625 89.757812 "/>
<path style=" stroke:none;fill-rule:nonzero;fill:rgb(16.079712%,14.118958%,17.248535%);fill-opacity:1;" d="M 93.320312 93.480469 C 93.320312 94.140625 92.792969 94.675781 92.140625 94.675781 C 91.492188 94.675781 90.964844 94.140625 90.964844 93.480469 C 90.964844 92.820312 91.492188 92.285156 92.140625 92.285156 C 92.792969 92.285156 93.320312 92.820312 93.320312 93.480469 "/>
<path style=" stroke:none;fill-rule:nonzero;fill:rgb(10.198975%,8.628845%,10.198975%);fill-opacity:1;" d="M 92.421875 93.480469 C 92.421875 93.636719 92.296875 93.765625 92.140625 93.765625 C 91.988281 93.765625 91.863281 93.636719 91.863281 93.480469 C 91.863281 93.324219 91.988281 93.195312 92.140625 93.195312 C 92.296875 93.195312 92.421875 93.324219 92.421875 93.480469 "/>
<path style=" stroke:none;fill-rule:nonzero;fill:rgb(64.309692%,16.859436%,15.689087%);fill-opacity:1;" d="M 128.257812 98.964844 C 125.273438 98.964844 122.851562 96.507812 122.851562 93.480469 C 122.851562 90.453125 125.273438 87.996094 128.257812 87.996094 C 131.242188 87.996094 133.664062 90.453125 133.664062 93.480469 C 133.664062 96.507812 131.242188 98.964844 128.257812 98.964844 Z M 128.257812 86.523438 C 124.472656 86.523438 121.402344 89.640625 121.402344 93.480469 C 121.402344 97.320312 124.472656 100.4375 128.257812 100.4375 C 132.042969 100.4375 135.113281 97.320312 135.113281 93.480469 C 135.113281 89.640625 132.042969 86.523438 128.257812 86.523438 "/>
<g clip-path="url(#clip9)" clip-rule="nonzero">
<path style=" stroke:none;fill-rule:nonzero;fill:rgb(16.079712%,14.118958%,17.248535%);fill-opacity:1;" d="M 128.257812 99.722656 C 124.859375 99.722656 122.101562 96.929688 122.101562 93.480469 C 122.101562 90.03125 124.859375 87.234375 128.257812 87.234375 C 131.65625 87.234375 134.414062 90.03125 134.414062 93.480469 C 134.414062 96.929688 131.65625 99.722656 128.257812 99.722656 Z M 128.257812 85.558594 C 123.945312 85.558594 120.449219 89.105469 120.449219 93.480469 C 120.449219 97.855469 123.945312 101.398438 128.257812 101.398438 C 132.570312 101.398438 136.066406 97.855469 136.066406 93.480469 C 136.066406 89.105469 132.570312 85.558594 128.257812 85.558594 "/>
</g>
<path style=" stroke:none;fill-rule:nonzero;fill:rgb(64.309692%,16.859436%,15.689087%);fill-opacity:1;" d="M 128.828125 99.34375 L 127.6875 99.34375 L 127.6875 87.636719 L 128.828125 87.636719 L 128.828125 99.34375 "/>
<path style=" stroke:none;fill-rule:nonzero;fill:rgb(64.309692%,16.859436%,15.689087%);fill-opacity:1;" d="M 122.488281 94.066406 L 122.488281 92.914062 L 134.03125 92.914062 L 134.03125 94.066406 L 122.488281 94.066406 "/>
<path style=" stroke:none;fill-rule:nonzero;fill:rgb(64.309692%,16.859436%,15.689087%);fill-opacity:1;" d="M 124.578125 98.039062 L 123.773438 97.222656 L 131.9375 88.941406 L 132.742188 89.757812 L 124.578125 98.039062 "/>
<path style=" stroke:none;fill-rule:nonzero;fill:rgb(64.309692%,16.859436%,15.689087%);fill-opacity:1;" d="M 123.773438 89.757812 L 124.578125 88.941406 L 132.742188 97.222656 L 131.9375 98.039062 L 123.773438 89.757812 "/>
<path style=" stroke:none;fill-rule:nonzero;fill:rgb(16.079712%,14.118958%,17.248535%);fill-opacity:1;" d="M 129.433594 93.480469 C 129.433594 94.140625 128.910156 94.675781 128.257812 94.675781 C 127.609375 94.675781 127.082031 94.140625 127.082031 93.480469 C 127.082031 92.820312 127.609375 92.285156 128.257812 92.285156 C 128.910156 92.285156 129.433594 92.820312 129.433594 93.480469 "/>
<path style=" stroke:none;fill-rule:nonzero;fill:rgb(10.198975%,8.628845%,10.198975%);fill-opacity:1;" d="M 128.539062 93.480469 C 128.539062 93.636719 128.414062 93.765625 128.257812 93.765625 C 128.101562 93.765625 127.976562 93.636719 127.976562 93.480469 C 127.976562 93.324219 128.101562 93.195312 128.257812 93.195312 C 128.414062 93.195312 128.539062 93.324219 128.539062 93.480469 "/>
<path style=" stroke:none;fill-rule:nonzero;fill:rgb(49.01886%,12.159729%,11.369324%);fill-opacity:1;" d="M 128.695312 98.289062 C 128.546875 98.65625 128.148438 98.839844 127.8125 98.699219 L 110.382812 90.300781 C 110.046875 90.160156 109.894531 89.746094 110.046875 89.375 C 110.199219 89.007812 110.59375 88.824219 110.929688 88.964844 L 128.359375 97.363281 C 128.695312 97.503906 128.847656 97.917969 128.695312 98.289062 "/>
<path style=" stroke:none;fill-rule:nonzero;fill:rgb(49.01886%,12.159729%,11.369324%);fill-opacity:1;" d="M 110.570312 97.367188 C 110.417969 97.738281 110.023438 97.921875 109.6875 97.78125 L 92.257812 89.382812 C 91.917969 89.238281 91.769531 88.824219 91.917969 88.457031 C 92.070312 88.085938 92.464844 87.902344 92.804688 88.046875 L 110.234375 96.445312 C 110.570312 96.585938 110.722656 97 110.570312 97.367188 "/>
<path style=" stroke:none;fill-rule:nonzero;fill:rgb(41.178894%,40.388489%,40.388489%);fill-opacity:1;" d="M 136.90625 86.386719 L 133.605469 86.386719 L 133.605469 84.914062 L 136.90625 84.914062 L 136.90625 86.386719 "/>
<g clip-path="url(#clip10)" clip-rule="nonzero">
<path style=" stroke:none;fill-rule:nonzero;fill:rgb(41.178894%,40.388489%,40.388489%);fill-opacity:1;" d="M 138.3125 86.867188 C 137.6875 86.867188 137.179688 86.351562 137.179688 85.71875 C 137.179688 85.082031 137.6875 84.570312 138.3125 84.570312 C 138.9375 84.570312 139.445312 85.082031 139.445312 85.71875 C 139.445312 86.351562 138.9375 86.867188 138.3125 86.867188 Z M 138.3125 83.800781 C 137.269531 83.800781 136.421875 84.660156 136.421875 85.71875 C 136.421875 86.777344 137.269531 87.636719 138.3125 87.636719 C 139.355469 87.636719 140.203125 86.777344 140.203125 85.71875 C 140.203125 84.660156 139.355469 83.800781 138.3125 83.800781 "/>
</g>
<path style=" stroke:none;fill-rule:nonzero;fill:rgb(41.178894%,40.388489%,40.388489%);fill-opacity:1;" d="M 81.492188 85.050781 L 84.789062 85.050781 L 84.789062 86.519531 L 81.492188 86.519531 L 81.492188 85.050781 "/>
<path style=" stroke:none;fill-rule:nonzero;fill:rgb(41.178894%,40.388489%,40.388489%);fill-opacity:1;" d="M 80.082031 84.570312 C 80.707031 84.570312 81.214844 85.082031 81.214844 85.71875 C 81.214844 86.351562 80.707031 86.867188 80.082031 86.867188 C 79.457031 86.867188 78.949219 86.351562 78.949219 85.71875 C 78.949219 85.082031 79.457031 84.570312 80.082031 84.570312 Z M 80.082031 87.636719 C 81.125 87.636719 81.972656 86.777344 81.972656 85.71875 C 81.972656 84.660156 81.125 83.800781 80.082031 83.800781 C 79.039062 83.800781 78.191406 84.660156 78.191406 85.71875 C 78.191406 86.777344 79.039062 87.636719 80.082031 87.636719 "/>
<path style=" stroke:none;fill-rule:nonzero;fill:rgb(12.159729%,29.798889%,49.798584%);fill-opacity:1;" d="M 136.066406 69.945312 C 136.066406 70.320312 135.765625 70.625 135.394531 70.625 L 84.152344 70.625 C 83.785156 70.625 83.484375 70.320312 83.484375 69.945312 C 83.484375 69.570312 83.785156 69.265625 84.152344 69.265625 L 135.394531 69.265625 C 135.765625 69.265625 136.066406 69.570312 136.066406 69.945312 "/>
</g>
</svg>
